<?xml version="1.0" encoding="utf-8"?>
<!-- Generator: Adobe Illustrator 27.5.0, SVG Export Plug-In . SVG Version: 6.00 Build 0)  -->
<svg version="1.1" xmlns="http://www.w3.org/2000/svg" xmlns:xlink="http://www.w3.org/1999/xlink" x="0px" y="0px"
	 viewBox="0 0 3710 3710" style="enable-background:new 0 0 3710 3710;" xml:space="preserve">
<g id="Background">
	<g>
		<g>
			<rect style="fill:#FFFFFF00;" width="3710" height="3710"/>
		</g>
	</g>
</g>
<g id="Illustration">
	<g>
		<path style="fill:#F4F7FA00;" d="M2566.882,678.799c91.391,127.944-11.979,338.019,122.638,433.549
			c131.04,92.993,289.171-63.358,412.586,16.578c183.08,118.58,155.678,670.281-106.536,1015.644
			c-78.857,103.862-145.231,144.649-173.588,261.473c-60.892,250.849,163.929,397.324,122.745,521.506
			c-92.73,279.614-1561.47,528.876-2160.591-302.22c-279.813-388.156-327.005-952.412-85.189-1383.888
			C1135.907,461.769,2361.815,391.717,2566.882,678.799z"/>
		<path style="fill:#F4F7FA00;" d="M2530.126,643.617c91.391,127.944-11.979,338.019,122.638,433.549
			c131.04,92.993,289.171-63.358,412.586,16.578c183.08,118.58,155.678,670.281-106.536,1015.644
			c-78.856,103.862-145.231,144.649-173.588,261.473c-60.892,250.849,163.929,397.324,122.745,521.506
			c-92.73,279.614-1561.47,528.876-2160.591-302.22c-279.813-388.156-327.005-952.412-85.189-1383.888
			C1099.151,426.587,2325.059,356.535,2530.126,643.617z"/>
		<g>
			<linearGradient id="SVGID_1_" gradientUnits="userSpaceOnUse" x1="948.3775" y1="939.8943" x2="2571.3442" y2="939.8943">
				<stop  offset="0" style="stop-color:#444B8C"/>
				<stop  offset="0.9964" style="stop-color:#3E4177"/>
			</linearGradient>
			<path style="fill:url(#SVGID_1_);" d="M1017.74,1345.436l-69.363-0.583l1.578-188.517
				c2.722-325.093,259.265-591.156,584.044-605.713l347.672-15.585c181.787-8.153,354.264,56.61,485.76,182.343
				c131.494,125.732,203.911,295.171,203.911,477.103v150.661h-69.366v-150.661c0-162.815-64.807-314.448-182.485-426.967
				c-117.681-112.523-272.115-170.453-434.711-163.184l-347.676,15.585c-287.934,12.908-515.375,248.786-517.788,537.001
				L1017.74,1345.436z"/>
			<g>
				
					<linearGradient id="SVGID_00000075137822861979352490000003850291766198489479_" gradientUnits="userSpaceOnUse" x1="2837.8137" y1="1429.0204" x2="2626.2483" y2="1730.7615">
					<stop  offset="0" style="stop-color:#FCB148"/>
					<stop  offset="0.0521" style="stop-color:#FDBA46"/>
					<stop  offset="0.1424" style="stop-color:#FFC244"/>
					<stop  offset="0.3183" style="stop-color:#FFC444"/>
					<stop  offset="0.4849" style="stop-color:#FDB946"/>
					<stop  offset="0.7754" style="stop-color:#F99C4D"/>
					<stop  offset="0.8658" style="stop-color:#F8924F"/>
					<stop  offset="1" style="stop-color:#F8924F"/>
				</linearGradient>
				<path style="fill:url(#SVGID_00000075137822861979352490000003850291766198489479_);" d="M2581.94,1256.803h42.777
					c176.131,0,318.913,192.701,318.913,430.408v13.343c0,237.708-142.783,430.408-318.913,430.408h-42.777
					c-88.849,0-160.876-195.687-160.876-437.079C2421.064,1452.49,2493.091,1256.803,2581.94,1256.803z"/>
				
					<linearGradient id="SVGID_00000021829058947885085310000003579733974988810653_" gradientUnits="userSpaceOnUse" x1="2761.6267" y1="1565.1727" x2="2831.8599" y2="1521.3855">
					<stop  offset="0" style="stop-color:#444B8C"/>
					<stop  offset="0.9964" style="stop-color:#3E4177"/>
				</linearGradient>
				<path style="fill:url(#SVGID_00000021829058947885085310000003579733974988810653_);" d="M2320.685,1693.882
					c0,264.214,102.93,478.403,234.179,478.403s241.116-214.189,241.116-478.403s-109.867-478.403-241.116-478.403
					S2320.685,1429.668,2320.685,1693.882z"/>
				
					<linearGradient id="SVGID_00000015323299631708395830000014236431492071899783_" gradientUnits="userSpaceOnUse" x1="2752.104" y1="1559.5629" x2="2821.6636" y2="1516.1953">
					<stop  offset="0" style="stop-color:#444B8C"/>
					<stop  offset="0.9964" style="stop-color:#3E4177"/>
				</linearGradient>
				
					<rect x="2511.604" y="1215.479" style="fill:url(#SVGID_00000015323299631708395830000014236431492071899783_);" width="50.114" height="956.806"/>
				
					<linearGradient id="SVGID_00000019668880344949781290000012744770649786498966_" gradientUnits="userSpaceOnUse" x1="2815.5159" y1="1333.813" x2="2602.7942" y2="1585.8422">
					<stop  offset="0" style="stop-color:#444B8C"/>
					<stop  offset="0.9964" style="stop-color:#3E4177"/>
				</linearGradient>
				
					<ellipse style="fill:url(#SVGID_00000019668880344949781290000012744770649786498966_);" cx="2511.604" cy="1693.882" rx="237.647" ry="478.403"/>
				
					<linearGradient id="SVGID_00000157269175947399921490000006284346982552728467_" gradientUnits="userSpaceOnUse" x1="2382.3884" y1="1693.8822" x2="2640.8201" y2="1693.8822">
					<stop  offset="0.0036" style="stop-color:#6165D7"/>
					<stop  offset="1" style="stop-color:#AA80F9"/>
				</linearGradient>
				
					<ellipse style="opacity:0.6;fill:url(#SVGID_00000157269175947399921490000006284346982552728467_);" cx="2511.604" cy="1693.882" rx="129.216" ry="260.122"/>
			</g>
			<g>
				<g>
					
						<linearGradient id="SVGID_00000041981199284593608610000007762302691559373976_" gradientUnits="userSpaceOnUse" x1="2379.6499" y1="2302.4866" x2="2070.271" y2="2892.8323">
						<stop  offset="0" style="stop-color:#AA80F9"/>
						<stop  offset="0.9964" style="stop-color:#6165D7"/>
					</linearGradient>
					<path style="fill:url(#SVGID_00000041981199284593608610000007762302691559373976_);" d="M2037.117,3065.079
						c-36.077-2.862-82.234-12.888-126.536-41.85c-47.932-31.336-110.361-95.736-94.065-136.315
						c6.083-15.15,23.599-28.122,38.995-26.886c22.746,1.826,25.394,33.421,64.892,67.787c7.3,6.352,45.04,39.188,63.802,28.124
						c9.328-5.501,12.087-20.744,10.565-32.333c-4.448-33.885-45.82-39.088-85.592-75.77
						c-40.324-37.191-73.937-102.067-54.723-145.927c11.041-25.206,40.247-45.112,59.446-39.517
						c8.204,2.391,13.406,9.097,38.317,62.914c20.446,44.171,24.993,57.047,38.175,61.235c13.568,4.311,34.663-1.098,42.681-14.466
						c20.881-34.814-69.369-86.218-77.565-183.65c-3.672-43.662,8.14-108.375,47.679-122.246
						c26.729-9.377,64.81,4.945,78.576,29.466c12.41,22.106-2.666,38.738,6.802,88.398c2.873,15.07,8.785,46.08,21.261,47.707
						c14.647,1.91,31.035-37.631,34.823-47.26c28.516-72.497-4.182-109.778,22.706-144.971
						c20.967-27.443,66.589-38.466,102.729-24.604c31.625,12.13,56.926,43.672,58.615,76.361
						c1.719,33.259-26.254,66.368-82.2,132.587c-26.531,31.402-47.64,52.618-46.44,83.83c0.585,15.216,6.619,36.618,17.517,38.573
						c24.053,4.314,35.893-92.542,92.899-107.5c29.179-7.656,65.439,7.391,81.372,33.693c19.522,32.227,6.443,77.903-18.083,101.921
						c-32,31.337-64.817,7.522-125.028,41.183c-26.711,14.933-68.689,46.697-62.542,72.964c2.676,11.437,14.663,22.637,27.819,24.13
						c29.49,3.347,39.229-44.981,86.639-66.225c34.157-15.306,81.389-13.65,92.608,5.613
						c15.839,27.195-40.416,88.936-70.324,116.217C2286.785,3001.241,2201.516,3063.781,2037.117,3065.079z"/>
					<path style="opacity:0.5;fill:#FFFFFF;" d="M2053.318,3049.588c-4.768-80.831,48.771-245.474,87.724-323.309
						c38.117-76.162,74.578-196.651,74.941-197.859l2.374,0.715c-0.365,1.21-36.888,121.903-75.098,198.254
						c-38.832,77.593-92.211,241.628-87.468,322.053L2053.318,3049.588z"/>
				</g>
				
					<linearGradient id="SVGID_00000029758301863070831140000016009210903051320453_" gradientUnits="userSpaceOnUse" x1="2163.4399" y1="2746.6592" x2="1808.3363" y2="3172.3552">
					<stop  offset="0.0036" style="stop-color:#E38DDD"/>
					<stop  offset="1" style="stop-color:#9571F6"/>
				</linearGradient>
				<path style="fill:url(#SVGID_00000029758301863070831140000016009210903051320453_);" d="M1952.08,3075.619
					c-27.167-37.717-67.016-105.769-74.163-196.815c-2.944-37.516-8.695-110.79,36.13-173.995
					c22.342-31.503,69.722-78.094,101.736-64.655c20.598,8.648,33.386,41.542,27.573,66.556
					c-5.861,25.221-27.178,27.558-50.392,70.359c-8.59,15.838-18.403,34.429-10.864,44.932c6.296,8.771,23.594,10.367,36.563,5.107
					c26.79-10.867,18.419-44.22,47.381-68.144c20.594-17.012,54.925-25.008,69.739-11.074c12.864,12.098,10.623,40.36-0.744,59.199
					c-18.201,30.167-50.837,21.317-72.114,54.297c-9.439,14.631-16.15,36.731-7.888,45.469c9.414,9.956,37.117,1.346,54.872-9.66
					c23.442-14.531,24.307-29.993,39.745-31.931c17.219-2.162,38.748,14.237,42.115,32.379c4.715,25.41-26.459,52.815-51.145,64.722
					c-31.603,15.243-55.085,6.297-70.52,27.122c-5.665,7.643-10.854,20.117-6.208,27.688c6.627,10.8,30.581,7.235,46.485,4.867
					c38.708-5.761,49.365-19.799,63.235-12.979c14.043,6.905,21.285,30.228,15.213,46.589c-3.374,9.093-13.513,23.177-63.753,31.995
					C2089.909,3093.82,2030.829,3098.163,1952.08,3075.619z"/>
			</g>
			<g>
				<g>
					
						<linearGradient id="SVGID_00000133491558192521833390000016211373385990361515_" gradientUnits="userSpaceOnUse" x1="936.2951" y1="1530.7373" x2="2734.8198" y2="1530.7373">
						<stop  offset="0.0036" style="stop-color:#E38DDD"/>
						<stop  offset="1" style="stop-color:#9571F6"/>
					</linearGradient>
					<path style="fill:url(#SVGID_00000133491558192521833390000016211373385990361515_);" d="M1906.487,2289.892
						c-296.83,30.628-569.106,54.991-787.121-105.341c-34.905-25.67-201.648-148.295-181.367-277.994
						c17.297-110.622,155.033-126.527,202.797-266.201c38.738-113.28-28.702-170.535-35.717-292.505
						c-14.4-250.43,236.314-593.269,542.889-598.615c166.592-2.905,392.557,93.097,435.74,224.48
						c9.339,28.412,15.654,75.29,57.146,102.037c52.659,33.945,99.526-4.791,164.295,27.21
						c61.36,30.316,84.214,97.152,92.863,122.444c25.509,74.595-5.233,102.708,7.144,156.456
						c27.844,120.913,213.531,109.375,292.874,224.48c83.226,120.737,11.941,326.399-81.75,444.897
						C2473.88,2231.346,2244.179,2255.047,1906.487,2289.892z"/>
					
						<linearGradient id="SVGID_00000077318392860608508510000018144218600548478598_" gradientUnits="userSpaceOnUse" x1="936.2951" y1="1621.5573" x2="2721.0327" y2="1621.5573">
						<stop  offset="0.0036" style="stop-color:#E38DDD"/>
						<stop  offset="1" style="stop-color:#9571F6"/>
					</linearGradient>
					<path style="opacity:0.3;fill:url(#SVGID_00000077318392860608508510000018144218600548478598_);" d="M2502.13,1858.033
						c-101.101-43.047-119.594-162.472-204.124-163.258c-112.62-1.049-126.125,210.505-300.018,278.9
						c-145.206,57.11-356.395-3.632-400.023-108.839c-53.433-128.854,181.348-235.505,150.009-401.344
						c-38.831-205.492-430.822-208.476-484.651-398.087c-10.141-35.723-8.734-79.777,15.765-134.594
						c-112.904,121.233-181.747,282.466-174.009,417.039c7.014,121.97,74.455,179.225,35.717,292.505
						c-47.764,139.675-185.5,155.579-202.797,266.201c-20.281,129.699,146.462,252.324,181.367,277.994
						c218.015,160.332,490.291,135.969,787.121,105.341c337.692-34.844,567.393-58.545,709.793-238.651
						c44.932-56.83,84.698-133.708,104.753-211.65C2622.563,1881.227,2552.85,1879.629,2502.13,1858.033z"/>
				</g>
				<g>
					
						<linearGradient id="SVGID_00000091729118910624979520000004043240388823040171_" gradientUnits="userSpaceOnUse" x1="1482.7551" y1="3747.1611" x2="1878.1205" y2="1744.3301">
						<stop  offset="0" style="stop-color:#311944"/>
						<stop  offset="1" style="stop-color:#893976"/>
					</linearGradient>
					<path style="fill:url(#SVGID_00000091729118910624979520000004043240388823040171_);" d="M1347.932,2012.106
						c-5.504,3.107,12.574,92.979,86.707,156.073c83.781,71.304,153.557,35.553,211.566,90.176
						c35.694,33.61,41.533,77.52,27.746,322.551c-18.647,331.407-37.596,397.943-93.644,443.941
						c-58.177,47.745-130.574,52.226-128.327,62.429c2.786,12.643,110.374-10.449,239.312-13.873
						c213.036-5.657,393.292,44.795,395.385,34.683c1.787-8.631-135.117-18.312-172.901-103.381
						c-15.926-35.857-7.15-69.141-0.842-101.249c30.427-154.866-19.487-165.619-1.709-409.256
						c9.58-131.28,15.28-197.735,59.926-237.69c52.429-46.921,106.089-26.99,182.403-69.402
						c109.649-60.94,150.591-177.407,144.688-181.938c-5.475-4.203-58.292,81.24-173.415,142.2
						c-43.015,22.777-106.806,48.532-120.21,31.307c-16.517-21.224,47.92-90.905,36.971-100.673
						c-7.993-7.132-53.584,20.244-83.87,61.687c-16.309,22.316-16.519,32.753-38.155,62.017
						c-22.845,30.899-38.48,52.043-51.389,49.711c-27.164-4.906-37.078-112.811-27.747-208.097
						c10.783-110.11,47.33-190.574,38.151-194.224c-7.143-2.84-32.939,44.366-35.84,49.712
						c-31.289,57.656-30.015,89.645-46.243,92.488c-21.257,3.723-30.984-49.854-80.927-67.054
						c-27.868-9.598-59.75-4.938-62.429,4.625c-4.471,15.961,77.237,28.331,113.407,95.515
						c10.127,18.811,12.634,44.158,17.232,94.085c8.733,94.817,14.078,152.853-5.78,160.698
						c-24.305,9.603-80.941-58.108-111.393-119.265c-25.568-51.348-19.125-72.021-48.148-109.642
						c-41.206-53.413-103.212-75.276-107.517-69.366c-3.313,4.549,27.773,25.252,65.897,76.302
						c29.343,39.293,61.169,81.91,48.556,104.049c-13.96,24.5-79.987,19.78-130.396-1.108
						C1392.696,2117.744,1354.227,2008.553,1347.932,2012.106z"/>
					
						<linearGradient id="SVGID_00000139972425860507904730000003327033808733795968_" gradientUnits="userSpaceOnUse" x1="1395.1296" y1="3729.864" x2="1790.4957" y2="1727.0289">
						<stop  offset="0" style="stop-color:#311944"/>
						<stop  offset="1" style="stop-color:#893976"/>
					</linearGradient>
					<path style="opacity:0.3;fill:url(#SVGID_00000139972425860507904730000003327033808733795968_);" d="M1833.493,2754.321
						c-18.219-72.076-76.513-64.53-104.049-140.466c-32.563-89.799,37.912-130.813,13.873-242.781
						c-2.813-13.102-25.284-111.129-105.783-161.275c-67.755-42.208-112.75-10.707-182.085-43.354
						c-23.066-10.86-49.506-29.143-74.968-61.946c13.219,21.528,30.937,43.917,54.158,63.68
						c83.781,71.304,153.557,35.553,211.566,90.176c35.694,33.61,41.533,77.52,27.746,322.551
						c-18.647,331.407-37.596,397.943-93.644,443.941c-58.177,47.745-130.574,52.226-128.327,62.429
						c2.786,12.643,110.374-10.449,239.312-13.873c59.543-1.581,116.521,1.223,167.768,5.861
						c-47.167-48.003-61.51-90.302-63.72-123.783C1790.031,2875.056,1853.689,2834.221,1833.493,2754.321z"/>
				</g>
			</g>
			<g>
				
					<linearGradient id="SVGID_00000129199169120965631900000001068481252826258860_" gradientUnits="userSpaceOnUse" x1="752.4309" y1="1759.3264" x2="1227.7257" y2="1759.3264">
					<stop  offset="0" style="stop-color:#444B8C"/>
					<stop  offset="0.9964" style="stop-color:#3E4177"/>
				</linearGradient>
				
					<ellipse style="fill:url(#SVGID_00000129199169120965631900000001068481252826258860_);" cx="990.078" cy="1759.327" rx="237.648" ry="478.403"/>
				
					<linearGradient id="SVGID_00000173156186145705653620000015765332871969161652_" gradientUnits="userSpaceOnUse" x1="798.3199" y1="1843.7075" x2="416.8083" y2="2065.6777">
					<stop  offset="0" style="stop-color:#444B8C"/>
					<stop  offset="0.9964" style="stop-color:#3E4177"/>
				</linearGradient>
				
					<ellipse style="fill:url(#SVGID_00000173156186145705653620000015765332871969161652_);" cx="943.35" cy="1759.327" rx="237.647" ry="478.403"/>
				
					<linearGradient id="SVGID_00000142144774141552852170000016412375453043770250_" gradientUnits="userSpaceOnUse" x1="527.1756" y1="1759.3264" x2="1049.7426" y2="1759.3264">
					<stop  offset="0" style="stop-color:#FCB148"/>
					<stop  offset="0.0521" style="stop-color:#FDBA46"/>
					<stop  offset="0.1424" style="stop-color:#FFC244"/>
					<stop  offset="0.3183" style="stop-color:#FFC444"/>
					<stop  offset="0.4849" style="stop-color:#FDB946"/>
					<stop  offset="0.7754" style="stop-color:#F99C4D"/>
					<stop  offset="0.8658" style="stop-color:#F8924F"/>
					<stop  offset="1" style="stop-color:#F8924F"/>
				</linearGradient>
				<path style="fill:url(#SVGID_00000142144774141552852170000016412375453043770250_);" d="M888.866,1322.247h-42.777
					c-176.131,0-318.913,192.701-318.913,430.408v13.343c0,237.708,142.782,430.407,318.913,430.407h42.777
					c88.849,0,160.877-195.686,160.877-437.079C1049.743,1517.935,977.715,1322.247,888.866,1322.247z"/>
			</g>
			
				<linearGradient id="SVGID_00000129169417471298572680000005577940709140703373_" gradientUnits="userSpaceOnUse" x1="527.1756" y1="1752.6185" x2="841.4226" y2="1752.6185">
				<stop  offset="0" style="stop-color:#FCB148"/>
				<stop  offset="0.0521" style="stop-color:#FDBA46"/>
				<stop  offset="0.1424" style="stop-color:#FFC244"/>
				<stop  offset="0.3183" style="stop-color:#FFC444"/>
				<stop  offset="0.4849" style="stop-color:#FDB946"/>
				<stop  offset="0.7754" style="stop-color:#F99C4D"/>
				<stop  offset="0.8658" style="stop-color:#F8924F"/>
				<stop  offset="1" style="stop-color:#F8924F"/>
			</linearGradient>
			
				<ellipse style="fill:url(#SVGID_00000129169417471298572680000005577940709140703373_);" cx="684.299" cy="1752.619" rx="157.123" ry="315.487"/>
			<g>
				
					<linearGradient id="SVGID_00000050660439820646838730000016284998504738687622_" gradientUnits="userSpaceOnUse" x1="1888.4664" y1="339.345" x2="1779.7935" y2="700.0471">
					<stop  offset="0" style="stop-color:#FCB148"/>
					<stop  offset="0.0521" style="stop-color:#FDBA46"/>
					<stop  offset="0.1424" style="stop-color:#FFC244"/>
					<stop  offset="0.3183" style="stop-color:#FFC444"/>
					<stop  offset="0.4849" style="stop-color:#FDB946"/>
					<stop  offset="0.7754" style="stop-color:#F99C4D"/>
					<stop  offset="0.8658" style="stop-color:#F8924F"/>
					<stop  offset="1" style="stop-color:#F8924F"/>
				</linearGradient>
				<path style="fill:url(#SVGID_00000050660439820646838730000016284998504738687622_);" d="M2373.13,876.809
					c-28.203,0.002-56.309-11.396-76.834-33.855c-104.692-114.55-253.582-176.251-408.408-169.325l-347.676,15.585
					c-121.424,5.443-234.757,56.628-319.122,144.124c-39.887,41.367-105.754,42.568-147.123,2.681
					c-41.367-39.887-42.568-105.756-2.681-147.123c121.505-126.015,284.73-199.732,459.608-207.569l347.672-15.585
					c216.731-9.729,424.91,76.609,571.336,236.824c38.768,42.417,35.807,108.232-6.612,146.998
					C2423.335,867.804,2398.19,876.809,2373.13,876.809z"/>
				
					<linearGradient id="SVGID_00000026877839839570930660000005410455932143976845_" gradientUnits="userSpaceOnUse" x1="1888.4666" y1="339.3449" x2="1779.7935" y2="700.0474">
					<stop  offset="0" style="stop-color:#FCB148"/>
					<stop  offset="0.0521" style="stop-color:#FDBA46"/>
					<stop  offset="0.1424" style="stop-color:#FFC244"/>
					<stop  offset="0.3183" style="stop-color:#FFC444"/>
					<stop  offset="0.4849" style="stop-color:#FDB946"/>
					<stop  offset="0.7754" style="stop-color:#F99C4D"/>
					<stop  offset="0.8658" style="stop-color:#F8924F"/>
					<stop  offset="1" style="stop-color:#F8924F"/>
				</linearGradient>
				<path style="opacity:0.3;fill:url(#SVGID_00000026877839839570930660000005410455932143976845_);" d="M2226.566,665.254
					c-255.727-74.393-257.103-142.776-390.762-147.98c-249.906-9.731-350.853,225.204-594.233,194.224
					c-57.054-7.263-105.52-27.06-143.888-48.499c-8.992,8.378-17.81,16.992-26.397,25.897
					c-39.887,41.367-38.686,107.236,2.681,147.123c41.369,39.887,107.236,38.686,147.123-2.681
					c84.365-87.496,197.698-138.681,319.122-144.124l347.676-15.585c154.827-6.926,303.716,54.775,408.408,169.325
					c20.525,22.459,48.631,33.857,76.834,33.855c25.061,0,50.206-9.005,70.162-27.245c38.448-35.136,44.479-92.492,16.405-134.508
					C2391.897,705.619,2312.784,690.335,2226.566,665.254z"/>
			</g>
		</g>
		<g>
			<g>
				<path style="fill:#C1CAD4;" d="M1224.925,1723.855c0,0-19.091,142.139,130.682,242.354l-159.37,38.016
					c0,0-51.01-95.378-14.08-253.365L1224.925,1723.855z"/>
				
					<linearGradient id="SVGID_00000046325516939449541090000018251575499070598831_" gradientUnits="userSpaceOnUse" x1="1213.047" y1="1707.5942" x2="1219.6492" y2="1803.6251">
					<stop  offset="0.0036" style="stop-color:#F36F56"/>
					<stop  offset="1" style="stop-color:#FFC444"/>
				</linearGradient>
				<path style="fill:url(#SVGID_00000046325516939449541090000018251575499070598831_);" d="M1196.88,1750.859
					c0,0-8.588-21.202-7.203-30.746c1.386-9.545,24.106-22.282,39.593-35.436c15.486-13.154-0.581,13.229-4.182,19.231
					c-3.601,6.002-16.235,15.005-14.42,35.412L1196.88,1750.859z"/>
				
					<linearGradient id="SVGID_00000060714364145744102350000011201413287834773412_" gradientUnits="userSpaceOnUse" x1="1318.6018" y1="1863.7465" x2="1309.1831" y2="1750.7201" gradientTransform="matrix(0.9986 0.0537 -0.0537 0.9986 185.5795 -55.8024)">
					<stop  offset="0.0036" style="stop-color:#26264F"/>
					<stop  offset="1" style="stop-color:#444B8C"/>
				</linearGradient>
				<path style="fill:url(#SVGID_00000060714364145744102350000011201413287834773412_);" d="M1375.205,1859.068
					c-7.827-15.415-11.055-15.325-12.978-23.461c-4.38-18.541,6.929-42.092,16.52-42.419c6.184-0.211,6.695,9.401,19.784,24.383
					c16.035,18.352,25.766,15.944,35.202,31.875c2.208,3.727,12.142,20.501,6.032,33.019c-7.796,15.977-38.536,18.508-51.384,6.184
					C1382.287,1882.804,1384.847,1878.058,1375.205,1859.068z"/>
				
					<linearGradient id="SVGID_00000033370557921504717460000010281100699622689923_" gradientUnits="userSpaceOnUse" x1="1285.0638" y1="1697.1125" x2="1294.0665" y2="2030.2047" gradientTransform="matrix(0.9986 0.0537 -0.0537 0.9986 185.5795 -55.8024)">
					<stop  offset="0.0036" style="stop-color:#F36F56"/>
					<stop  offset="1" style="stop-color:#FFC444"/>
				</linearGradient>
				<path style="fill:url(#SVGID_00000033370557921504717460000010281100699622689923_);" d="M1398.249,1875.702
					c0,0-5.49,29.297-1.583,53.118c3.532,21.529,43.414,43.894,51.058,50.307c7.644,6.413-20.274,13.372-45.885,10.02
					c-25.61-3.351-95.731-25.788-106.387-38.295c-10.657-12.505,12.407-6.344,31.803-8.712
					c19.396-2.368,37.913-34.874,38.478-51.466C1366.299,1874.083,1398.249,1875.702,1398.249,1875.702z"/>
				<g>
					
						<linearGradient id="SVGID_00000023282787102109879420000001185906416172282775_" gradientUnits="userSpaceOnUse" x1="1206.1187" y1="1792.6223" x2="1294.9514" y2="1886.2567" gradientTransform="matrix(-0.966 -0.2584 -0.2584 0.966 3092.8628 402.9503)">
						<stop  offset="0.0036" style="stop-color:#F36F56"/>
						<stop  offset="1" style="stop-color:#FFC444"/>
					</linearGradient>
					<path style="fill:url(#SVGID_00000023282787102109879420000001185906416172282775_);" d="M1389.897,1897.567
						c0,0-19.605,8.609-36.971-5.277c-15.548-12.434,7.571-50.628,23.387-51.116c5.276-0.163,12.977,3.618,17.525,9.148
						c2.686,3.267,2.845,5.443,7.339,10.696c4.142,4.843,5.964,5.281,6.593,7.633c0.789,2.941-0.565,7.858-11.211,16.311
						c5.305-0.978,9.879,0.42,11.65,3.513c0.282,0.493,0.869,2.036,0.694,3.627
						C1408.265,1897.866,1400.736,1900.535,1389.897,1897.567z"/>
				</g>
				
					<linearGradient id="SVGID_00000127764754139978788850000000829013478192669606_" gradientUnits="userSpaceOnUse" x1="945.3155" y1="1797.1578" x2="963.9214" y2="1856.5768">
					<stop  offset="0.0036" style="stop-color:#F36F56"/>
					<stop  offset="1" style="stop-color:#FFC444"/>
				</linearGradient>
				<path style="fill:url(#SVGID_00000127764754139978788850000000829013478192669606_);" d="M959.03,1795.664
					c0,0-11.874-1.654-8.172-24.331c2.902-17.775,0.704-23.753-3.492-20.602c-4.196,3.151-4.789,13.423-4.789,13.423
					s-15.305-13.054-21.607-30.16c-6.302-17.105-10.354-2.701-11.704,5.852c-1.351,8.553,9.003,35.111,14.855,40.063
					c5.852,4.951,14.405,26.775,14.405,26.775L959.03,1795.664z"/>
				
					<linearGradient id="SVGID_00000080186847902067180590000017981714901620302519_" gradientUnits="userSpaceOnUse" x1="1541.3433" y1="3139.877" x2="1481.6504" y2="2943.0513" gradientTransform="matrix(-0.9999 0.0138 0.0138 0.9999 2839.1826 -14.86)">
					<stop  offset="0" style="stop-color:#444B8C"/>
					<stop  offset="0.9964" style="stop-color:#26264F"/>
				</linearGradient>
				<path style="fill:url(#SVGID_00000080186847902067180590000017981714901620302519_);" d="M1398.173,3049.789
					c6.109,12.461,4.395,17.816,2.874,20.171c-4.459,6.912-15.192,0.385-43.214,3.704c-3.287,0.391-9.558,1.238-17.386-0.606
					c-6.705-1.581-14.61-5.149-14.273-6.945c0.123-0.654,1.315-0.916,1.766-1.012c7.776-1.658,56.455-16.597,56.455-16.597
					L1398.173,3049.789z"/>
				
					<linearGradient id="SVGID_00000065035872652326710550000003846032482749332896_" gradientUnits="userSpaceOnUse" x1="1489.8855" y1="3101.5486" x2="1489.8855" y2="2785.3445" gradientTransform="matrix(-0.9999 0.0138 0.0138 0.9999 2839.1826 -14.86)">
					<stop  offset="0" style="stop-color:#FFC444"/>
					<stop  offset="0.9964" style="stop-color:#F36F56"/>
				</linearGradient>
				<path style="fill:url(#SVGID_00000065035872652326710550000003846032482749332896_);" d="M1401.909,3022.396l-4.346,27.857
					c0,0-11.964,8.457-15.109-1.81c-2.262-7.385-2.198-27.292-2.198-27.292L1401.909,3022.396z"/>
				
					<linearGradient id="SVGID_00000133525720594773058200000012564123420437862309_" gradientUnits="userSpaceOnUse" x1="1601.2844" y1="3089.7412" x2="1601.2844" y2="2773.5251" gradientTransform="matrix(-0.9999 0.0138 0.0138 0.9999 2839.1826 -14.86)">
					<stop  offset="0" style="stop-color:#FFC444"/>
					<stop  offset="0.9964" style="stop-color:#F36F56"/>
				</linearGradient>
				<polygon style="fill:url(#SVGID_00000133525720594773058200000012564123420437862309_);" points="1265.492,3024.307 
					1277.239,3056.38 1294.309,3053.661 1290.351,3023.963 				"/>
				
					<linearGradient id="SVGID_00000144336252676555071040000011432220092769369219_" gradientUnits="userSpaceOnUse" x1="1623.2703" y1="3101.6948" x2="1563.5775" y2="2904.8701" gradientTransform="matrix(-0.9999 0.0138 0.0138 0.9999 2839.1826 -14.86)">
					<stop  offset="0" style="stop-color:#444B8C"/>
					<stop  offset="0.9964" style="stop-color:#26264F"/>
				</linearGradient>
				<path style="fill:url(#SVGID_00000144336252676555071040000011432220092769369219_);" d="M1282.555,3074.045
					c8.262-9.804,15.639-8.915,17.127-15.653c1.17-5.293-2.072-11.786-6.963-14.253c-6.875-3.465-15.202,1.948-17.083,3.169
					c-12.779,8.308-9.299,21.299-21.348,26.933c-2.426,1.134-6.268,2.337-10.319,6.133c-1.72,1.612-5.981,5.604-4.982,8.354
					c1.154,3.18,8.751,3.07,15.974,2.966c8.668-0.125,13.001-0.184,17.169-2.787
					C1277.907,3085.302,1276.177,3081.612,1282.555,3074.045z"/>
				
					<linearGradient id="SVGID_00000150810588587529679570000018088239349653218455_" gradientUnits="userSpaceOnUse" x1="1462.5656" y1="2419.2361" x2="1433.5262" y2="3072.6238" gradientTransform="matrix(-0.9999 0.0138 0.0138 0.9999 2839.1826 -14.86)">
					<stop  offset="0" style="stop-color:#311944"/>
					<stop  offset="1" style="stop-color:#893976"/>
				</linearGradient>
				<path style="fill:url(#SVGID_00000150810588587529679570000018088239349653218455_);" d="M1493.244,2356.099
					c-3.158,64.792-12.434,120.103-22.987,165.191c-11.353,48.504-17.537,56.795-21.475,90.419
					c-8.567,73.168,14.837,84.17,17.398,167.135c2.828,91.61-23.064,163.817-33.224,191.354
					c-8.883,24.073-18.057,43.472-24.932,56.934c-8.547,7.135-21.314,4.051-34.78,1.011c-3.204-83.106-7.739-161.349-10.943-244.455
					c-13.39-125.205-26.78-250.405-40.17-375.61C1379.169,2390.75,1436.206,2373.427,1493.244,2356.099z"/>
				
					<linearGradient id="SVGID_00000021086871510841003590000013380120467994200460_" gradientUnits="userSpaceOnUse" x1="1462.5656" y1="2419.2361" x2="1433.5262" y2="3072.6233" gradientTransform="matrix(-0.9999 0.0138 0.0138 0.9999 2839.1826 -14.86)">
					<stop  offset="0" style="stop-color:#311944"/>
					<stop  offset="1" style="stop-color:#893976"/>
				</linearGradient>
				<path style="opacity:0.3;fill:url(#SVGID_00000021086871510841003590000013380120467994200460_);" d="M1373.244,3028.143
					c-3.204-83.106-7.739-161.349-10.943-244.455c-13.39-125.205-26.78-250.405-40.17-375.61
					c57.038-17.328,114.075-34.651,171.113-51.979c-0.209,4.291-0.514,8.426-0.774,12.637
					c-80.945,67.305-97.671,121.639-97.695,158.944c-0.028,45.246,24.221,68.195,17.983,133.664
					c-4.46,46.811-18.732,54.769-19.634,97.077c-1.16,54.48,21.565,85.613,32.278,117.339
					c10.353,30.662,13.346,73.843-9.231,134.683c-2.928,6.27-5.688,11.877-8.147,16.689
					C1399.477,3034.265,1386.71,3031.185,1373.244,3028.143z"/>
				
					<linearGradient id="SVGID_00000129908870673839867410000008479635868741937842_" gradientUnits="userSpaceOnUse" x1="1988.4653" y1="2689.3992" x2="1348.4196" y2="2660.3057" gradientTransform="matrix(-0.9999 0.0138 0.0138 0.9999 2839.1826 -14.86)">
					<stop  offset="0" style="stop-color:#311944"/>
					<stop  offset="1" style="stop-color:#893976"/>
				</linearGradient>
				<path style="fill:url(#SVGID_00000129908870673839867410000008479635868741937842_);" d="M1396.488,2404.518
					c-51.328,62.855-80.605,121.616-97.496,162.783c-20.324,49.53-35.058,86.649-30.44,134.727
					c5.083,52.913,29.078,71.928,45.014,117.037c15.455,43.748,22.985,111.066-17.336,211.237
					c-10.146,3.513-20.294,7.027-30.439,10.537c-6.742-27.069-17.647-67.561-33.953-115.782
					c-32.312-95.558-64.519-158.441-73.23-177.973c-30.674-68.784-33.774-191.582,93.9-428.513
					C1300.503,2347.219,1348.495,2375.867,1396.488,2404.518z"/>
				<path style="fill:#FFFFFF;" d="M927.393,1801.74c13.507-9.46,27.013-18.917,40.52-28.377
					c16.434,101.026,53.791,140.674,85.52,158.018c76.544,41.839,144.859-32.72,291.372-2.293
					c40.374,8.384,110.748,24.002,149.77,81.518c10.257,15.119,13.907,26.566,30.939,135.022
					c21.772,138.637,22.546,162.833,19.477,192.683c-5.617,54.63-9.022,87.736-34.211,117.037
					c-66.886,77.809-209.049,37.689-226.872,32.411c-32.926-9.752-84.101-24.913-104.433-68.422
					c-9.567-20.471-8.551-39.187,6.153-114.052c29.125-148.302,32.846-157.899,24.716-174.139
					c-27.436-54.805-114.368-23.446-187.805-74.411C979.599,2026.938,931.201,1962.001,927.393,1801.74z"/>
				
					<linearGradient id="SVGID_00000130613106887084637830000003043653410981695418_" gradientUnits="userSpaceOnUse" x1="1128.3524" y1="1987.5021" x2="1243.5891" y2="2587.6946">
					<stop  offset="0" style="stop-color:#FF9085"/>
					<stop  offset="1" style="stop-color:#FB6FBB"/>
				</linearGradient>
				<path style="opacity:0.3;fill:url(#SVGID_00000130613106887084637830000003043653410981695418_);" d="M1350.529,2467.953
					c-14.335-29.4,4.929-56.492-16.205-91.829c-26.934-45.036-75.396-29.745-93.63-63.021
					c-31.185-56.908,91.564-136.274,66.621-226.872c-11.909-43.256-53.491-74.566-88.228-86.428
					c-77.12-26.334-127.564,40.794-199.865,19.806c-17.136-4.976-36.804-15.283-56.698-36.672
					c17.583,37.094,39.42,59.507,60.014,73.799c73.437,50.965,160.369,19.606,187.805,74.411
					c8.129,16.24,4.409,25.837-24.716,174.139c-14.703,74.865-15.72,93.581-6.153,114.052c20.332,43.51,71.507,58.67,104.433,68.422
					c9.756,2.891,56.778,16.18,108.305,14.893C1369.223,2493.312,1356.852,2480.923,1350.529,2467.953z"/>
			</g>
		</g>
	</g>
</g>
</svg>
