<?xml version="1.0" encoding="utf-8"?>
<!-- Generator: Adobe Illustrator 27.5.0, SVG Export Plug-In . SVG Version: 6.00 Build 0)  -->
<svg version="1.1" xmlns="http://www.w3.org/2000/svg" xmlns:xlink="http://www.w3.org/1999/xlink" x="0px" y="0px"
	 viewBox="0 0 3710 3710" style="enable-background:new 0 0 3710 3710;" xml:space="preserve">
<g id="Background">
	<g>
		<g>
			<rect style="fill:#FF222200;" width="3710" height="3710"/>
		</g>
	</g>
</g>
<g id="Illustration">
	<g>
		<linearGradient id="SVGID_1_" gradientUnits="userSpaceOnUse" x1="3572.4426" y1="4044.9705" x2="1119.469" y2="998.5311">
			<stop  offset="0" style="stop-color:#DAE3FE"/>
			<stop  offset="1" style="stop-color:#E9EFFD"/>
		</linearGradient>
		<path style="fill:url(#SVGID_1_);" d="M2897.614,2843.565c-56.344,59.316-109.656,97.569-151.777,127.791
			c-495.122,355.255-1080.982,251.7-1205.494,226.411c-183.865-37.344-539.272-109.529-796.224-411.7
			c-388.748-457.16-328.214-1177.402-26.675-1652.844c55.156-86.966,346.508-569.65,938.678-647.058
			c358.375-46.846,776.125,47.637,1078.648,301.091C3369.794,1319.28,3324.587,2394.061,2897.614,2843.565z"/>
		<g>
			<path style="fill:#91B3FA;" d="M530.523,482.484c-4.408-18.764,21.988-31.237,38.15-18.129
				c164.13,133.092,558.484,531.645,460.204,1228.144c-123.308,873.862,87.502,1192.727,349.908,1387.228
				c0,0-360.37-91.467-587.099-415.023C235.016,1870.296,608.898,816.113,530.523,482.484z"/>
			<path style="fill:#FFFFFF;" d="M655.428,755.426c20.533,97.283,38.833,194.863,52.975,292.882
				c14.735,97.937,26.027,196.216,33.754,294.657c7.289,98.458,12.438,197.019,12.731,295.623
				c0.806,98.598-3.294,197.115-7.81,296.015c-3.874,98.865-8.428,198.443-1.19,298.726
				c7.117,100.079,28.183,201.032,69.987,295.669c10.45,23.586,21.439,47.099,33.922,69.819
				c12.001,22.929,25.181,45.406,38.822,67.669c27.544,44.42,58.55,87.337,93.102,128.072
				c69.355,81.331,153,153.478,245.147,214.539c9.699,6.427,23.594,4.847,31.037-3.528c7.308-8.223,5.676-19.941-3.568-26.447
				l-0.065-0.046c-21.925-15.399-43.62-30.996-64.434-47.374c-10.561-8.047-20.686-16.482-30.991-24.748
				c-9.929-8.593-20.249-16.857-29.861-25.706c-39.127-34.825-75.376-71.981-108.263-111.268
				c-66.15-78.208-119.105-165.357-159.225-255.704c-19.475-45.383-35.044-91.926-46.41-139.343
				c-11.326-47.429-18.45-95.682-22.389-144.323c-7.89-97.337-4.326-195.929-1.275-294.812
				c2.903-98.909,5.034-198.319,2.424-297.649c-1.15-49.662-3.333-99.301-6.544-148.881c-1.44-24.797-3.437-49.565-5.381-74.332
				c-2.219-24.751-4.597-49.489-7.208-74.204c-10.654-98.85-24.797-197.372-42.523-295.37
				c-18.27-97.924-39.545-195.397-65.131-291.997c-0.732-2.762-3.916-4.487-7.113-3.856
				C656.841,750.121,654.868,752.747,655.428,755.426z"/>
		</g>
		<g>
			<g>
				<path style="fill:#BDD0FB;" d="M868.618,2412.913c-19.072,20.235-52.612,14.416-64.084-10.913
					c-63.307-139.76-206.561-551.098,30.03-1024.981c199.791-400.173,270.098-636.149,294.592-745.485
					c5.18-23.12,36.864-26.19,46.427-4.513C1281.098,866.183,1559.702,1679.678,868.618,2412.913z"/>
				<path style="fill:#FFFFFF;" d="M833.976,2398.166c-0.679,0.122-1.376,0.179-2.092,0.168c-5.994-0.092-10.78-5.026-10.689-11.021
					c0.105-6.796,13.331-686.122,265.992-1255.084c2.433-5.474,8.846-7.945,14.33-5.517c5.48,2.436,7.948,8.849,5.517,14.331
					c-250.824,564.82-264.025,1239.852-264.13,1246.602C842.825,2392.926,838.987,2397.268,833.976,2398.166z"/>
			</g>
		</g>
		<g>
			<g>
				
					<linearGradient id="SVGID_00000176027632509533742640000009796532025936710816_" gradientUnits="userSpaceOnUse" x1="4192.6021" y1="2113.2686" x2="3070.1768" y2="2163.3779">
					<stop  offset="0" style="stop-color:#4F52FF"/>
					<stop  offset="1" style="stop-color:#4042E2"/>
				</linearGradient>
				<path style="fill:url(#SVGID_00000176027632509533742640000009796532025936710816_);" d="M3165.092,1563.176
					c0-65.306-52.941-118.247-118.247-118.247H707.646c-65.306,0-118.247,52.941-118.247,118.247v1306.917
					c0,65.306,52.941,118.247,118.247,118.247h2339.199c65.306,0,118.247-52.941,118.247-118.247V1563.176z"/>
				
					<linearGradient id="SVGID_00000155828090897421906530000017430198783049278125_" gradientUnits="userSpaceOnUse" x1="2122.4001" y1="1458.3789" x2="1408.3757" y2="3691.7822">
					<stop  offset="0" style="stop-color:#4F52FF"/>
					<stop  offset="1" style="stop-color:#4042E2"/>
				</linearGradient>
				<path style="fill:url(#SVGID_00000155828090897421906530000017430198783049278125_);" d="M3131.684,1583.382
					c0-63.55-51.518-115.068-115.068-115.068H741.216c-63.55,0-115.068,51.518-115.068,115.068v1273.186
					c0,63.55,51.518,115.068,115.068,115.068h2275.401c63.55,0,115.068-51.518,115.068-115.068V1583.382z"/>
			</g>
			<g>
				<g>
					<g>
						
							<linearGradient id="SVGID_00000103225726909443247330000016055048552044018070_" gradientUnits="userSpaceOnUse" x1="1683.052" y1="2129.6509" x2="1458.9935" y2="2830.4856">
							<stop  offset="0" style="stop-color:#09005D"/>
							<stop  offset="1" style="stop-color:#1A0F91"/>
						</linearGradient>
						<path style="fill:url(#SVGID_00000103225726909443247330000016055048552044018070_);" d="M1638.384,2690.157
							c0,15.235-12.35,27.585-27.585,27.585h-8.303c-15.235,0-27.585-12.35-27.585-27.585v-643.039
							c0-15.235,12.35-27.585,27.585-27.585h8.303c15.235,0,27.585,12.35,27.585,27.585V2690.157z"/>
						<path style="fill:#7D97F4;" d="M1661.769,2143.775c0,10.719-8.689,19.408-19.408,19.408h-84.79
							c-10.719,0-19.408-8.689-19.408-19.408v-1.272c0-10.719,8.689-19.408,19.408-19.408h84.79
							c10.719,0,19.408,8.689,19.408,19.408V2143.775z"/>
					</g>
					<g>
						
							<linearGradient id="SVGID_00000017474484255256001330000007353641048014223747_" gradientUnits="userSpaceOnUse" x1="1870.1322" y1="2129.6509" x2="1646.0736" y2="2830.4856">
							<stop  offset="0" style="stop-color:#09005D"/>
							<stop  offset="1" style="stop-color:#1A0F91"/>
						</linearGradient>
						<path style="fill:url(#SVGID_00000017474484255256001330000007353641048014223747_);" d="M1825.464,2690.157
							c0,15.235-12.35,27.585-27.585,27.585h-8.303c-15.235,0-27.585-12.35-27.585-27.585v-643.039
							c0-15.235,12.35-27.585,27.585-27.585h8.303c15.235,0,27.585,12.35,27.585,27.585V2690.157z"/>
						<path style="fill:#7D97F4;" d="M1845.509,2143.775c0,10.719-8.689,19.408-19.408,19.408h-84.79
							c-10.719,0-19.408-8.689-19.408-19.408v-1.272c0-10.719,8.689-19.408,19.408-19.408h84.79
							c10.719,0,19.408,8.689,19.408,19.408V2143.775z"/>
					</g>
					<g>
						
							<linearGradient id="SVGID_00000132779132936788778960000013103655232276433306_" gradientUnits="userSpaceOnUse" x1="2053.8716" y1="2129.6509" x2="1829.813" y2="2830.4856">
							<stop  offset="0" style="stop-color:#09005D"/>
							<stop  offset="1" style="stop-color:#1A0F91"/>
						</linearGradient>
						<path style="fill:url(#SVGID_00000132779132936788778960000013103655232276433306_);" d="M2009.204,2690.157
							c0,15.235-12.35,27.585-27.585,27.585h-8.303c-15.235,0-27.585-12.35-27.585-27.585v-643.039
							c0-15.235,12.35-27.585,27.585-27.585h8.303c15.235,0,27.585,12.35,27.585,27.585V2690.157z"/>
						<path style="fill:#7D97F4;" d="M2029.248,2143.775c0,10.719-8.689,19.408-19.408,19.408h-84.79
							c-10.719,0-19.408-8.689-19.408-19.408v-1.272c0-10.719,8.689-19.408,19.408-19.408h84.79
							c10.719,0,19.408,8.689,19.408,19.408V2143.775z"/>
					</g>
					<g>
						
							<linearGradient id="SVGID_00000151540957794623663890000014001896004537846426_" gradientUnits="userSpaceOnUse" x1="2224.248" y1="2129.6509" x2="2000.1896" y2="2830.4856">
							<stop  offset="0" style="stop-color:#09005D"/>
							<stop  offset="1" style="stop-color:#1A0F91"/>
						</linearGradient>
						<path style="fill:url(#SVGID_00000151540957794623663890000014001896004537846426_);" d="M2179.58,2690.157
							c0,15.235-12.35,27.585-27.585,27.585h-8.303c-15.235,0-27.585-12.35-27.585-27.585v-643.039
							c0-15.235,12.35-27.585,27.585-27.585h8.303c15.235,0,27.585,12.35,27.585,27.585V2690.157z"/>
						<path style="fill:#7D97F4;" d="M2212.987,2143.775c0,10.719-8.689,19.408-19.408,19.408h-84.79
							c-10.719,0-19.408-8.689-19.408-19.408v-1.272c0-10.719,8.689-19.408,19.408-19.408h84.79
							c10.719,0,19.408,8.689,19.408,19.408V2143.775z"/>
					</g>
				</g>
				<g>
					<g>
						
							<linearGradient id="SVGID_00000088839942755314327130000001536798453088915615_" gradientUnits="userSpaceOnUse" x1="1170.0686" y1="2138.3074" x2="936.9928" y2="2867.3474">
							<stop  offset="0" style="stop-color:#09005D"/>
							<stop  offset="1" style="stop-color:#1A0F91"/>
						</linearGradient>
						
							<circle style="fill:url(#SVGID_00000088839942755314327130000001536798453088915615_);" cx="1090.589" cy="2386.912" r="348.499"/>
						<circle style="fill:#7D97F4;" cx="1090.589" cy="2386.912" r="258.515"/>
						
							<linearGradient id="SVGID_00000121276625163853888800000010742119617353331089_" gradientUnits="userSpaceOnUse" x1="1137.5704" y1="2239.9592" x2="999.7968" y2="2670.9028">
							<stop  offset="0" style="stop-color:#4F52FF"/>
							<stop  offset="1" style="stop-color:#4042E2"/>
						</linearGradient>
						
							<circle style="fill:url(#SVGID_00000121276625163853888800000010742119617353331089_);" cx="1090.589" cy="2386.912" r="206.002"/>
						<g>
							<g>
								<g>
									<g>
										<circle style="fill:#7D97F4;" cx="1090.589" cy="2075.737" r="18.67"/>
										<circle style="fill:#7D97F4;" cx="1090.589" cy="2689.789" r="18.67"/>
									</g>
									<g>
										<circle style="fill:#7D97F4;" cx="1397.615" cy="2382.763" r="18.67"/>
										<circle style="fill:#7D97F4;" cx="783.563" cy="2382.763" r="18.67"/>
									</g>
								</g>
								<g>
									<g>
										<path style="fill:#7D97F4;" d="M1320.892,2178.865c-7.292,7.292-19.113,7.292-26.404,0
											c-7.291-7.291-7.291-19.113,0-26.404c7.291-7.291,19.113-7.291,26.404,0
											C1328.183,2159.752,1328.183,2171.573,1320.892,2178.865z"/>
										<circle style="fill:#7D97F4;" cx="873.489" cy="2599.864" r="18.671"/>
									</g>
									<g>
										<path style="fill:#7D97F4;" d="M1294.488,2613.066c-7.291-7.292-7.291-19.113,0-26.404c7.291-7.291,19.113-7.291,26.404,0
											c7.291,7.292,7.291,19.113,0,26.404C1313.6,2620.357,1301.779,2620.357,1294.488,2613.066z"/>
										<path style="fill:#7D97F4;" d="M860.287,2178.865c-7.292-7.291-7.292-19.113,0-26.404c7.291-7.291,19.113-7.291,26.404,0
											c7.292,7.291,7.292,19.113,0,26.404C879.4,2186.156,867.578,2186.156,860.287,2178.865z"/>
									</g>
								</g>
							</g>
							<g>
								<g>
									<g>
										<path style="fill:#7D97F4;" d="M1223.851,2105.535c-3.895,9.548-14.792,14.13-24.34,10.235
											c-9.548-3.895-14.13-14.792-10.235-24.339c3.895-9.548,14.792-14.13,24.34-10.235
											C1223.163,2085.091,1227.745,2095.988,1223.851,2105.535z"/>
										<path style="fill:#7D97F4;" d="M991.903,2674.096c-3.895,9.548-14.792,14.13-24.34,10.235
											c-9.548-3.895-14.13-14.792-10.235-24.34c3.895-9.547,14.792-14.129,24.34-10.234
											C991.215,2653.651,995.797,2664.548,991.903,2674.096z"/>
									</g>
									<g>
										<path style="fill:#7D97F4;" d="M1367.817,2516.024c-9.547-3.895-14.129-14.792-10.235-24.34
											c3.895-9.547,14.792-14.13,24.34-10.235c9.548,3.895,14.13,14.792,10.235,24.34
											C1388.262,2515.337,1377.364,2519.919,1367.817,2516.024z"/>
										<path style="fill:#7D97F4;" d="M799.257,2284.076c-9.548-3.895-14.13-14.792-10.235-24.34
											c3.895-9.547,14.792-14.13,24.339-10.235c9.548,3.895,14.13,14.792,10.235,24.34
											C819.701,2283.389,808.804,2287.972,799.257,2284.076z"/>
									</g>
								</g>
								<g>
									<g>
										<path style="fill:#7D97F4;" d="M1380.849,2280.963c-9.505,3.997-20.451-0.469-24.448-9.973
											c-3.997-9.505,0.468-20.451,9.974-24.448c9.505-3.997,20.451,0.468,24.448,9.973
											C1394.819,2266.021,1390.354,2276.966,1380.849,2280.963z"/>
										<path style="fill:#7D97F4;" d="M814.804,2518.984c-9.505,3.997-20.451-0.469-24.448-9.974
											c-3.997-9.505,0.469-20.451,9.974-24.448c9.505-3.997,20.451,0.468,24.448,9.973
											C828.774,2504.042,824.309,2514.987,814.804,2518.984z"/>
									</g>
									<g>
										<path style="fill:#7D97F4;" d="M1192.389,2673.023c-3.997-9.505,0.469-20.451,9.974-24.448
											c9.505-3.997,20.451,0.469,24.448,9.974c3.997,9.505-0.469,20.451-9.974,24.448
											C1207.332,2686.993,1196.386,2682.528,1192.389,2673.023z"/>
										<path style="fill:#7D97F4;" d="M954.368,2106.978c-3.997-9.505,0.469-20.451,9.974-24.448
											c9.505-3.997,20.451,0.469,24.448,9.974c3.997,9.505-0.469,20.451-9.974,24.448
											C969.311,2120.948,958.365,2116.483,954.368,2106.978z"/>
									</g>
								</g>
							</g>
						</g>
					</g>
					<g>
						
							<linearGradient id="SVGID_00000049899953948347782850000006466608883825925000_" gradientUnits="userSpaceOnUse" x1="2742.5415" y1="2138.3076" x2="2509.4656" y2="2867.3477">
							<stop  offset="0" style="stop-color:#09005D"/>
							<stop  offset="1" style="stop-color:#1A0F91"/>
						</linearGradient>
						
							<circle style="fill:url(#SVGID_00000049899953948347782850000006466608883825925000_);" cx="2663.062" cy="2386.912" r="348.499"/>
						<circle style="fill:#7D97F4;" cx="2663.062" cy="2386.912" r="258.515"/>
						
							<linearGradient id="SVGID_00000003094597265376904330000014028108806463027340_" gradientUnits="userSpaceOnUse" x1="2710.043" y1="2239.9592" x2="2572.2693" y2="2670.9028">
							<stop  offset="0" style="stop-color:#4F52FF"/>
							<stop  offset="1" style="stop-color:#4042E2"/>
						</linearGradient>
						
							<circle style="fill:url(#SVGID_00000003094597265376904330000014028108806463027340_);" cx="2663.062" cy="2386.912" r="206.002"/>
						<g>
							<g>
								<g>
									<g>
										<circle style="fill:#7D97F4;" cx="2663.062" cy="2075.737" r="18.67"/>
										<circle style="fill:#7D97F4;" cx="2663.062" cy="2689.789" r="18.67"/>
									</g>
									<g>
										
											<ellipse transform="matrix(0.9239 -0.3827 0.3827 0.9239 -685.7598 1317.9818)" style="fill:#7D97F4;" cx="2970.088" cy="2382.763" rx="18.671" ry="18.67"/>
										<circle style="fill:#7D97F4;" cx="2356.036" cy="2382.763" r="18.67"/>
									</g>
								</g>
								<g>
									<g>
										<path style="fill:#7D97F4;" d="M2893.364,2178.865c-7.291,7.292-19.113,7.292-26.404,0
											c-7.292-7.291-7.292-19.113,0-26.404c7.291-7.291,19.113-7.291,26.404,0
											C2900.656,2159.752,2900.656,2171.573,2893.364,2178.865z"/>
										<path style="fill:#7D97F4;" d="M2459.164,2613.066c-7.292,7.291-19.113,7.291-26.405,0
											c-7.291-7.292-7.291-19.113,0-26.404c7.292-7.291,19.113-7.291,26.405,0
											C2466.455,2593.953,2466.455,2605.774,2459.164,2613.066z"/>
									</g>
									<g>
										<circle style="fill:#7D97F4;" cx="2880.162" cy="2599.864" r="18.671"/>
										<path style="fill:#7D97F4;" d="M2432.759,2178.865c-7.291-7.291-7.291-19.113,0-26.404c7.292-7.291,19.113-7.291,26.405,0
											c7.291,7.291,7.291,19.113,0,26.404C2451.872,2186.156,2440.051,2186.156,2432.759,2178.865z"/>
									</g>
								</g>
							</g>
							<g>
								<g>
									<g>
										<path style="fill:#7D97F4;" d="M2796.323,2105.535c-3.895,9.548-14.792,14.13-24.34,10.235
											c-9.547-3.895-14.129-14.792-10.235-24.339c3.895-9.548,14.792-14.13,24.34-10.235
											C2795.636,2085.091,2800.218,2095.988,2796.323,2105.535z"/>
										<path style="fill:#7D97F4;" d="M2564.375,2674.096c-3.895,9.548-14.792,14.13-24.34,10.235
											c-9.547-3.895-14.13-14.792-10.235-24.34c3.895-9.547,14.792-14.129,24.34-10.234
											C2563.688,2653.651,2568.27,2664.548,2564.375,2674.096z"/>
									</g>
									<g>
										<path style="fill:#7D97F4;" d="M2940.29,2516.024c-9.548-3.895-14.13-14.792-10.235-24.34
											c3.895-9.547,14.792-14.13,24.34-10.235c9.548,3.895,14.13,14.792,10.235,24.34
											C2960.734,2515.337,2949.837,2519.919,2940.29,2516.024z"/>
										<path style="fill:#7D97F4;" d="M2371.729,2284.076c-9.548-3.895-14.13-14.792-10.235-24.34
											c3.895-9.547,14.792-14.13,24.34-10.235c9.547,3.895,14.13,14.792,10.235,24.34
											C2392.174,2283.389,2381.277,2287.972,2371.729,2284.076z"/>
									</g>
								</g>
								<g>
									<g>
										<path style="fill:#7D97F4;" d="M2953.321,2280.963c-9.505,3.997-20.451-0.469-24.448-9.973
											c-3.997-9.505,0.468-20.451,9.974-24.448c9.505-3.997,20.451,0.468,24.448,9.973
											C2967.292,2266.021,2962.826,2276.966,2953.321,2280.963z"/>
										<path style="fill:#7D97F4;" d="M2387.277,2518.984c-9.505,3.997-20.451-0.469-24.448-9.974
											c-3.997-9.505,0.469-20.451,9.974-24.448c9.505-3.997,20.451,0.468,24.448,9.973
											C2401.247,2504.042,2396.782,2514.987,2387.277,2518.984z"/>
									</g>
									<g>
										<path style="fill:#7D97F4;" d="M2764.862,2673.023c-3.997-9.505,0.469-20.451,9.974-24.448s20.451,0.469,24.448,9.974
											c3.997,9.505-0.469,20.451-9.974,24.448S2768.858,2682.528,2764.862,2673.023z"/>
										<path style="fill:#7D97F4;" d="M2526.841,2106.978c-3.997-9.505,0.469-20.451,9.974-24.448
											c9.505-3.997,20.451,0.469,24.448,9.974c3.997,9.505-0.469,20.451-9.974,24.448
											C2541.783,2120.948,2530.838,2116.483,2526.841,2106.978z"/>
									</g>
								</g>
							</g>
						</g>
					</g>
				</g>
				<g>
					<g>
						<path style="fill:#7D97F4;" d="M1528.141,1611.572c0,26.048-21.116,47.164-47.164,47.164h-172.93
							c-26.048,0-47.164-21.116-47.164-47.164v-2.554c0-26.048,21.116-47.164,47.164-47.164h172.93
							c26.048,0,47.164,21.116,47.164,47.164V1611.572z"/>
						<path style="fill:#7D97F4;" d="M1528.141,1761.904c0,26.048-21.116,47.164-47.164,47.164h-172.93
							c-26.048,0-47.164-21.116-47.164-47.164v-2.553c0-26.048,21.116-47.164,47.164-47.164h172.93
							c26.048,0,47.164,21.116,47.164,47.164V1761.904z"/>
					</g>
					<g>
						<path style="fill:#7D97F4;" d="M1848.849,1611.572c0,26.048-21.116,47.164-47.164,47.164h-172.93
							c-26.048,0-47.164-21.116-47.164-47.164v-2.554c0-26.048,21.116-47.164,47.164-47.164h172.93
							c26.048,0,47.164,21.116,47.164,47.164V1611.572z"/>
						<path style="fill:#7D97F4;" d="M1848.849,1761.904c0,26.048-21.116,47.164-47.164,47.164h-172.93
							c-26.048,0-47.164-21.116-47.164-47.164v-2.553c0-26.048,21.116-47.164,47.164-47.164h172.93
							c26.048,0,47.164,21.116,47.164,47.164V1761.904z"/>
					</g>
					<g>
						<path style="fill:#7D97F4;" d="M2169.558,1611.572c0,26.048-21.116,47.164-47.164,47.164h-172.93
							c-26.048,0-47.164-21.116-47.164-47.164v-2.554c0-26.048,21.116-47.164,47.164-47.164h172.93
							c26.048,0,47.164,21.116,47.164,47.164V1611.572z"/>
						<path style="fill:#7D97F4;" d="M2169.558,1761.904c0,26.048-21.116,47.164-47.164,47.164h-172.93
							c-26.048,0-47.164-21.116-47.164-47.164v-2.553c0-26.048,21.116-47.164,47.164-47.164h172.93
							c26.048,0,47.164,21.116,47.164,47.164V1761.904z"/>
					</g>
					<g>
						<path style="fill:#7D97F4;" d="M2493.608,1611.572c0,26.048-21.116,47.164-47.164,47.164h-172.93
							c-26.048,0-47.164-21.116-47.164-47.164v-2.554c0-26.048,21.116-47.164,47.164-47.164h172.93
							c26.048,0,47.164,21.116,47.164,47.164V1611.572z"/>
						
							<linearGradient id="SVGID_00000023247541509070164830000013694702618839755185_" gradientUnits="userSpaceOnUse" x1="2377.0159" y1="1707.3374" x2="2327.0547" y2="1863.6108">
							<stop  offset="0" style="stop-color:#09005D"/>
							<stop  offset="1" style="stop-color:#1A0F91"/>
						</linearGradient>
						<path style="fill:url(#SVGID_00000023247541509070164830000013694702618839755185_);" d="M2493.608,1761.904
							c0,26.048-21.116,47.164-47.164,47.164h-172.93c-26.048,0-47.164-21.116-47.164-47.164v-2.553
							c0-26.048,21.116-47.164,47.164-47.164h172.93c26.048,0,47.164,21.116,47.164,47.164V1761.904z"/>
					</g>
				</g>
				<g>
					<g>
						
							<ellipse transform="matrix(0.1602 -0.9871 0.9871 0.1602 -905.7009 2160.3694)" style="fill:#7D97F4;" cx="816.755" cy="1612.447" rx="47.037" ry="47.038"/>
						<circle style="fill:#7D97F4;" cx="816.755" cy="1786.705" r="47.037"/>
					</g>
					<g>
						
							<ellipse transform="matrix(0.1327 -0.9912 0.9912 0.1327 948.8919 4309.3306)" style="fill:#7D97F4;" cx="2936.896" cy="1612.447" rx="47.037" ry="47.038"/>
						<circle style="fill:#7D97F4;" cx="2936.896" cy="1786.705" r="47.038"/>
					</g>
				</g>
				<path style="fill:#7D97F4;" d="M2289.824,2833.479c0,13.571-11.002,24.573-24.573,24.573h-786.033
					c-13.571,0-24.573-11.002-24.573-24.573v-0.965c0-13.571,11.002-24.573,24.573-24.573h786.033
					c13.571,0,24.573,11.002,24.573,24.573V2833.479z"/>
				<g>
					<g>
						<g>
							<circle style="fill:#7D97F4;" cx="1057.392" cy="1702.326" r="88.512"/>
						</g>
					</g>
					<g>
						<g>
							
								<ellipse transform="matrix(0.839 -0.5441 0.5441 0.839 -492.1932 1741.1874)" style="fill:#7D97F4;" cx="2696.249" cy="1702.326" rx="88.512" ry="88.512"/>
							
								<linearGradient id="SVGID_00000150795799739874663670000002489237050950888108_" gradientUnits="userSpaceOnUse" x1="4139.6865" y1="-770.295" x2="4075.3743" y2="-594.9927" gradientTransform="matrix(0.5526 0.8334 -0.8334 0.5526 -116.1814 -1349.9279)">
								<stop  offset="0" style="stop-color:#09005D"/>
								<stop  offset="1" style="stop-color:#1A0F91"/>
							</linearGradient>
							
								<circle style="fill:url(#SVGID_00000150795799739874663670000002489237050950888108_);" cx="2696.249" cy="1702.326" r="56.012"/>
						</g>
						<path style="fill:#7D97F4;" d="M2762.974,1670.943c-3.342,2.216-7.848,1.303-10.064-2.038
							c-2.216-3.342-1.303-7.848,2.039-10.064c3.342-2.216,7.848-1.303,10.064,2.039
							C2767.229,1664.221,2766.316,1668.727,2762.974,1670.943z"/>
					</g>
				</g>
			</g>
		</g>
		<g>
			
				<linearGradient id="SVGID_00000106132752228456446650000015614356659042810539_" gradientUnits="userSpaceOnUse" x1="2783.979" y1="-181.5887" x2="2409.8184" y2="433.1038">
				<stop  offset="0" style="stop-color:#09005D"/>
				<stop  offset="1" style="stop-color:#1A0F91"/>
			</linearGradient>
			<path style="fill:url(#SVGID_00000106132752228456446650000015614356659042810539_);" d="M2224.828,806.379
				c0,20.037-18.903,36.281-42.221,36.281s-42.22-16.244-42.22-36.281s18.902-36.281,42.22-36.281
				S2224.828,786.341,2224.828,806.379z"/>
			
				<linearGradient id="SVGID_00000128483109358867044730000004287137274279179145_" gradientUnits="userSpaceOnUse" x1="2754.3765" y1="-199.6017" x2="2380.2166" y2="415.0896">
				<stop  offset="0" style="stop-color:#09005D"/>
				<stop  offset="1" style="stop-color:#1A0F91"/>
			</linearGradient>
			<path style="fill:url(#SVGID_00000128483109358867044730000004287137274279179145_);" d="M2255.898,597.353
				c-24.555-15.535-24.879-32.073-43.421-35.08c-18.542-3.007-12.853,30.068-12.853,30.068v205.967
				c0,7.473,5.379,13.531,12.853,13.531c7.473,0,12.69,2.012,12.69-5.461l0.332-195.76c51.03,8.865,77.591,72.429,77.591,72.429
				C2307.6,647.466,2277.778,611.195,2255.898,597.353z"/>
		</g>
		<g>
			<g>
				<g>
					
						<linearGradient id="SVGID_00000174592926442786960220000005798651377246011813_" gradientUnits="userSpaceOnUse" x1="3888.9917" y1="-2553.9583" x2="3401.2471" y2="-1912.5415" gradientTransform="matrix(0.881 0.4732 -0.4732 0.881 1646.0137 -294.1537)">
						<stop  offset="0" style="stop-color:#09005D"/>
						<stop  offset="1" style="stop-color:#1A0F91"/>
					</linearGradient>
					<path style="fill:url(#SVGID_00000174592926442786960220000005798651377246011813_);" d="M2664.461,1015.343
						c-6.136-3.296-8.108-10.765-4.812-16.901l90.843-169.125c3.296-6.137,10.612-8.617,16.748-5.321
						c6.137,3.296,8.109,10.765,4.813,16.901l-94.139,175.262C2674.617,1022.295,2670.598,1018.639,2664.461,1015.343z"/>
				</g>
				
					<linearGradient id="SVGID_00000029764562578250815360000011378851329448402332_" gradientUnits="userSpaceOnUse" x1="3921.6226" y1="-2529.1428" x2="3433.8784" y2="-1887.7267" gradientTransform="matrix(0.881 0.4732 -0.4732 0.881 1646.0137 -294.1537)">
					<stop  offset="0" style="stop-color:#09005D"/>
					<stop  offset="1" style="stop-color:#1A0F91"/>
				</linearGradient>
				<path style="fill:url(#SVGID_00000029764562578250815360000011378851329448402332_);" d="M2680.11,1017.97
					c-8.837,16.453-31.892,21.256-51.494,10.727c-19.602-10.528-28.327-32.402-19.49-48.855
					c8.837-16.454,31.892-21.257,51.494-10.727C2680.222,979.644,2688.948,1001.517,2680.11,1017.97z"/>
			</g>
			<g>
				<g>
					
						<linearGradient id="SVGID_00000047055511034072912100000015023069393271763886_" gradientUnits="userSpaceOnUse" x1="3989.2612" y1="-2477.7114" x2="3501.5166" y2="-1836.2944" gradientTransform="matrix(0.881 0.4732 -0.4732 0.881 1646.0137 -294.1537)">
						<stop  offset="0" style="stop-color:#09005D"/>
						<stop  offset="1" style="stop-color:#1A0F91"/>
					</linearGradient>
					<path style="fill:url(#SVGID_00000047055511034072912100000015023069393271763886_);" d="M2832.708,1077.082
						c-6.136-3.297-8.108-10.765-4.812-16.901l90.843-169.126c3.296-6.136,10.612-8.616,16.748-5.32
						c6.136,3.296,8.109,10.765,4.812,16.901l-94.139,175.262C2842.864,1084.035,2838.845,1080.378,2832.708,1077.082z"/>
				</g>
				
					<linearGradient id="SVGID_00000181045400447084744380000002717016757464247203_" gradientUnits="userSpaceOnUse" x1="4019.5688" y1="-2454.6689" x2="3531.8252" y2="-1813.2533" gradientTransform="matrix(0.881 0.4732 -0.4732 0.881 1646.0137 -294.1537)">
					<stop  offset="0" style="stop-color:#09005D"/>
					<stop  offset="1" style="stop-color:#1A0F91"/>
				</linearGradient>
				<path style="fill:url(#SVGID_00000181045400447084744380000002717016757464247203_);" d="M2845.123,1077.972
					c-8.838,16.454-31.892,21.257-51.494,10.728c-19.601-10.529-28.327-32.402-19.49-48.855
					c8.837-16.453,31.892-21.256,51.494-10.727S2853.96,1061.519,2845.123,1077.972z"/>
			</g>
			
				<linearGradient id="SVGID_00000053517012844070389700000008503642282651173547_" gradientUnits="userSpaceOnUse" x1="3902.6082" y1="-2543.5989" x2="3414.8628" y2="-1902.181" gradientTransform="matrix(0.881 0.4732 -0.4732 0.881 1646.0137 -294.1537)">
				<stop  offset="0" style="stop-color:#09005D"/>
				<stop  offset="1" style="stop-color:#1A0F91"/>
			</linearGradient>
			<path style="fill:url(#SVGID_00000053517012844070389700000008503642282651173547_);" d="M2733.975,885.926l186.432,53.745
				l23.347-43.466c1.77-3.294,1.596-7.411,0.198-10.879c-1.399-3.467-3.672-5.815-7.231-6.96l-169.48-54.37L2733.975,885.926z"/>
		</g>
		<g>
			<g>
				<g>
					
						<linearGradient id="SVGID_00000128444830949600667110000006251462233705643703_" gradientUnits="userSpaceOnUse" x1="-3150.78" y1="-10953.6924" x2="-3083.9656" y2="-10405.8154" gradientTransform="matrix(0.773 -0.6344 0.6344 0.773 1536.5291 -1574.0546)">
						<stop  offset="0" style="stop-color:#09005D"/>
						<stop  offset="1" style="stop-color:#1A0F91"/>
					</linearGradient>
					<path style="fill:url(#SVGID_00000128444830949600667110000006251462233705643703_);" d="M1849.32,1235.24
						c-5.9,4.841-14.288,3.723-19.129-2.177l-133.425-162.593c-4.841-5.899-4.301-14.345,1.598-19.186
						c5.9-4.84,14.288-3.722,19.129,2.177l138.267,168.492C1860.6,1227.853,1855.219,1230.4,1849.32,1235.24z"/>
				</g>
				
					<linearGradient id="SVGID_00000012471711528631291480000001686030414980670386_" gradientUnits="userSpaceOnUse" x1="-3191.6819" y1="-10948.7129" x2="-3124.8669" y2="-10400.835" gradientTransform="matrix(0.773 -0.6344 0.6344 0.773 1536.5291 -1574.0546)">
					<stop  offset="0" style="stop-color:#09005D"/>
					<stop  offset="1" style="stop-color:#1A0F91"/>
				</linearGradient>
				<path style="fill:url(#SVGID_00000012471711528631291480000001686030414980670386_);" d="M1858.511,1220.484
					c12.98,15.818,8.226,41.177-10.618,56.641c-18.844,15.464-44.643,15.177-57.623-0.641c-12.98-15.818-8.227-41.177,10.618-56.641
					C1819.731,1204.38,1845.531,1204.667,1858.511,1220.484z"/>
			</g>
			<g>
				<g>
					
						<linearGradient id="SVGID_00000098899201277606596640000004874474245350769085_" gradientUnits="userSpaceOnUse" x1="-2955.9119" y1="-10977.4551" x2="-2889.0972" y2="-10429.5791" gradientTransform="matrix(0.773 -0.6344 0.6344 0.773 1536.5291 -1574.0546)">
						<stop  offset="0" style="stop-color:#09005D"/>
						<stop  offset="1" style="stop-color:#1A0F91"/>
					</linearGradient>
					<path style="fill:url(#SVGID_00000098899201277606596640000004874474245350769085_);" d="M1982.064,1090.562
						c-5.9,4.84-14.288,3.722-19.129-2.177l-133.426-162.593c-4.841-5.899-4.301-14.345,1.599-19.185
						c5.9-4.841,14.288-3.723,19.129,2.177l138.266,168.493C1993.344,1083.174,1987.963,1085.72,1982.064,1090.562z"/>
				</g>
				
					<linearGradient id="SVGID_00000011012365064241598110000009640301939500371107_" gradientUnits="userSpaceOnUse" x1="-3000.7776" y1="-10971.9932" x2="-2933.9629" y2="-10424.1162" gradientTransform="matrix(0.773 -0.6344 0.6344 0.773 1536.5291 -1574.0546)">
					<stop  offset="0" style="stop-color:#09005D"/>
					<stop  offset="1" style="stop-color:#1A0F91"/>
				</linearGradient>
				<path style="fill:url(#SVGID_00000011012365064241598110000009640301939500371107_);" d="M1988.145,1078.357
					c12.98,15.818,8.226,41.177-10.618,56.641c-18.845,15.464-44.644,15.177-57.624-0.641c-12.98-15.818-8.226-41.177,10.618-56.641
					C1949.366,1062.252,1975.165,1062.539,1988.145,1078.357z"/>
			</g>
			
				<linearGradient id="SVGID_00000155115565024297626800000014608927718514144186_" gradientUnits="userSpaceOnUse" x1="-3037.3748" y1="-10967.5107" x2="-2970.5601" y2="-10419.6348" gradientTransform="matrix(0.773 -0.6344 0.6344 0.773 1536.5291 -1574.0546)">
				<stop  offset="0" style="stop-color:#09005D"/>
				<stop  offset="1" style="stop-color:#1A0F91"/>
			</linearGradient>
			<path style="fill:url(#SVGID_00000155115565024297626800000014608927718514144186_);" d="M1747.222,1110.823l132.232-166.436
				l-34.291-41.787c-2.599-3.167-6.842-4.71-10.938-4.74c-4.096-0.03-7.423,1.294-10.068,4.422l-125.793,149.002L1747.222,1110.823z
				"/>
		</g>
		<g>
			<g>
				<g>
					<g>
						<g>
							<path style="fill:#7D97F4;" d="M2610.765,2874.206c2.965-1.602,6.25-2.791,9.557-2.791c134.283,0,268.567,0,402.851,0
								c3.332,0,6.57,1.177,9.557,2.791c22.792,12.313,45.583,27.276,68.376,37.298c-186.239,0-372.477,0-558.717,0
								C2565.181,2901.482,2587.974,2886.518,2610.765,2874.206z"/>
							
								<linearGradient id="SVGID_00000039838192460634573770000003682947109825312911_" gradientUnits="userSpaceOnUse" x1="-1257.0605" y1="2820.7861" x2="-1302.3489" y2="2962.4438" gradientTransform="matrix(-1 0 0 1 1553 0)">
								<stop  offset="0" style="stop-color:#09005D"/>
								<stop  offset="1" style="stop-color:#1A0F91"/>
							</linearGradient>
							<path style="fill:url(#SVGID_00000039838192460634573770000003682947109825312911_);" d="M2613.873,2870.793
								c0,3.472,0.517,0.622,3.692,0.622h414.364c3.175,0,6.216,2.851,6.216-0.622v-0.547c0-3.472-3.041-5.512-6.216-5.512h-414.364
								c-3.175,0-3.692,2.04-3.692,5.512V2870.793z"/>
						</g>
					</g>
					<g>
						<g>
							<path style="fill:#7D97F4;" d="M681.669,2874.206c2.964-1.602,6.25-2.791,9.557-2.791c134.284,0,268.568,0,402.852,0
								c3.331,0,6.569,1.177,9.557,2.791c22.792,12.313,45.583,27.276,68.375,37.298c-186.239,0-372.477,0-558.716,0
								C636.085,2901.482,658.877,2886.518,681.669,2874.206z"/>
							
								<linearGradient id="SVGID_00000053502965577063106810000000690542947013961347_" gradientUnits="userSpaceOnUse" x1="670.6458" y1="2820.4475" x2="624.9318" y2="2963.437" gradientTransform="matrix(-1 0 0 1 1553 0)">
								<stop  offset="0" style="stop-color:#09005D"/>
								<stop  offset="1" style="stop-color:#1A0F91"/>
							</linearGradient>
							<path style="fill:url(#SVGID_00000053502965577063106810000000690542947013961347_);" d="M682.94,2870.793
								c0,3.472,2.354,0.622,5.529,0.622h414.364c3.175,0,11.06,2.851,11.06-0.622v-0.547c0-3.472-7.885-5.512-11.06-5.512H688.469
								c-3.175,0-5.529,2.04-5.529,5.512V2870.793z"/>
						</g>
					</g>
				</g>
				<g>
					<g>
						
							<linearGradient id="SVGID_00000112620569313770422410000005897063795903175332_" gradientUnits="userSpaceOnUse" x1="-623.2396" y1="2916.5149" x2="-546.4031" y2="2916.5149" gradientTransform="matrix(-1 0 0 1 1553 0)">
							<stop  offset="0" style="stop-color:#09005D"/>
							<stop  offset="1" style="stop-color:#1A0F91"/>
						</linearGradient>
						<path style="fill:url(#SVGID_00000112620569313770422410000005897063795903175332_);" d="M2176.24,2916.139
							c0-15.475-12.545-28.02-28.02-28.02h-20.796c-15.475,0-28.02,12.545-28.02,28.02v0.752c0,15.475,12.545,28.02,28.02,28.02
							h20.796c15.475,0,28.02-12.545,28.02-28.02V2916.139z"/>
						
							<linearGradient id="SVGID_00000137833313653127366270000012637023633990128317_" gradientUnits="userSpaceOnUse" x1="-516.3367" y1="2916.5149" x2="-439.5002" y2="2916.5149" gradientTransform="matrix(-1 0 0 1 1553 0)">
							<stop  offset="0" style="stop-color:#09005D"/>
							<stop  offset="1" style="stop-color:#1A0F91"/>
						</linearGradient>
						<path style="fill:url(#SVGID_00000137833313653127366270000012637023633990128317_);" d="M2069.337,2916.139
							c0-15.475-12.545-28.02-28.02-28.02h-20.796c-15.475,0-28.02,12.545-28.02,28.02v0.752c0,15.475,12.545,28.02,28.02,28.02
							h20.796c15.475,0,28.02-12.545,28.02-28.02V2916.139z"/>
						
							<linearGradient id="SVGID_00000169526463648683280800000010217238525598824868_" gradientUnits="userSpaceOnUse" x1="-402.7523" y1="2916.5149" x2="-325.9158" y2="2916.5149" gradientTransform="matrix(-1 0 0 1 1553 0)">
							<stop  offset="0" style="stop-color:#09005D"/>
							<stop  offset="1" style="stop-color:#1A0F91"/>
						</linearGradient>
						<path style="fill:url(#SVGID_00000169526463648683280800000010217238525598824868_);" d="M1955.752,2916.139
							c0-15.475-12.545-28.02-28.02-28.02h-20.796c-15.475,0-28.02,12.545-28.02,28.02v0.752c0,15.475,12.545,28.02,28.02,28.02
							h20.796c15.475,0,28.02-12.545,28.02-28.02V2916.139z"/>
					</g>
					<g>
						<g>
							
								<linearGradient id="SVGID_00000059993725839576240790000017796155020678337971_" gradientUnits="userSpaceOnUse" x1="-188.9792" y1="3067.7019" x2="-180.729" y2="2869.6938" gradientTransform="matrix(-1 0 0 1 1553 0)">
								<stop  offset="0" style="stop-color:#09005D"/>
								<stop  offset="1" style="stop-color:#1A0F91"/>
							</linearGradient>
							<path style="fill:url(#SVGID_00000059993725839576240790000017796155020678337971_);" d="M1675.116,2864.734h108.266
								c13.589,0,32.06,10.241,32.06,23.831v36.302h-160.354v-36.302C1655.088,2874.975,1661.527,2864.734,1675.116,2864.734z"/>
							
								<linearGradient id="SVGID_00000018220225675005725190000002468330647301917841_" gradientUnits="userSpaceOnUse" x1="-6.8867" y1="3067.0537" x2="1.3292" y2="2869.8667" gradientTransform="matrix(-1 0 0 1 1553 0)">
								<stop  offset="0" style="stop-color:#09005D"/>
								<stop  offset="1" style="stop-color:#1A0F91"/>
							</linearGradient>
							<path style="fill:url(#SVGID_00000018220225675005725190000002468330647301917841_);" d="M1497.954,2864.734h108.266
								c13.589,0,25.482,10.241,25.482,23.831v36.302h-157.014v-36.302C1474.689,2874.975,1484.365,2864.734,1497.954,2864.734z"/>
							
								<linearGradient id="SVGID_00000103266099409093682860000011684803008840545966_" gradientUnits="userSpaceOnUse" x1="166.8201" y1="3067.3564" x2="175.054" y2="2869.74" gradientTransform="matrix(-1 0 0 1 1553 0)">
								<stop  offset="0" style="stop-color:#09005D"/>
								<stop  offset="1" style="stop-color:#1A0F91"/>
							</linearGradient>
							<path style="fill:url(#SVGID_00000103266099409093682860000011684803008840545966_);" d="M1320.793,2864.734h108.266
								c13.589,0,28.927,10.241,28.927,23.831v36.302h-157.014v-36.302C1300.972,2874.975,1307.203,2864.734,1320.793,2864.734z"/>
						</g>
						<g>
							
								<linearGradient id="SVGID_00000038377427055376730470000005207257337026450601_" gradientUnits="userSpaceOnUse" x1="-853.1951" y1="3097.1165" x2="-843.8511" y2="2872.8545" gradientTransform="matrix(-1 0 0 1 1553 0)">
								<stop  offset="0" style="stop-color:#09005D"/>
								<stop  offset="1" style="stop-color:#1A0F91"/>
							</linearGradient>
							<path style="fill:url(#SVGID_00000038377427055376730470000005207257337026450601_);" d="M2390.326,2864.734h9.842
								c9.966,0,19.944,7.303,19.944,17.269v56.227h-43.429v-56.227C2376.683,2872.037,2380.36,2864.734,2390.326,2864.734z"/>
							
								<linearGradient id="SVGID_00000039849301817806645340000002168768173839098032_" gradientUnits="userSpaceOnUse" x1="-783.0634" y1="3097.728" x2="-773.6913" y2="2872.7954" gradientTransform="matrix(-1 0 0 1 1553 0)">
								<stop  offset="0" style="stop-color:#09005D"/>
								<stop  offset="1" style="stop-color:#1A0F91"/>
							</linearGradient>
							<path style="fill:url(#SVGID_00000039849301817806645340000002168768173839098032_);" d="M2318.149,2864.734h9.842
								c9.966,0,25.307,7.303,25.307,17.269v56.227h-50.111v-56.227C2303.187,2872.037,2308.183,2864.734,2318.149,2864.734z"/>
							
								<linearGradient id="SVGID_00000140720181352835099100000011210036889007816111_" gradientUnits="userSpaceOnUse" x1="-709.5465" y1="3097.1782" x2="-700.1988" y2="2872.8286" gradientTransform="matrix(-1 0 0 1 1553 0)">
								<stop  offset="0" style="stop-color:#09005D"/>
								<stop  offset="1" style="stop-color:#1A0F91"/>
							</linearGradient>
							<path style="fill:url(#SVGID_00000140720181352835099100000011210036889007816111_);" d="M2245.971,2864.734h9.843
								c9.965,0,20.647,7.303,20.647,17.269v56.227h-43.429v-56.227C2233.032,2872.037,2236.006,2864.734,2245.971,2864.734z"/>
						</g>
					</g>
				</g>
				<g>
					<g>
						
							<linearGradient id="SVGID_00000110462566188235013980000015799098558601972904_" gradientUnits="userSpaceOnUse" x1="-1285.1818" y1="3138.6519" x2="-1336.8798" y2="3300.3584" gradientTransform="matrix(-1 0 0 1 1553 0)">
							<stop  offset="0" style="stop-color:#4F52FF"/>
							<stop  offset="1" style="stop-color:#4042E2"/>
						</linearGradient>
						<path style="fill:url(#SVGID_00000110462566188235013980000015799098558601972904_);" d="M2685.959,3193.794
							c0,18.119,13.111,35.077,29.285,35.077h281.134c16.174,0,29.285-16.958,29.285-35.077l0,0
							c0-18.119-13.111-35.077-29.285-35.077h-281.134C2699.07,3158.717,2685.959,3175.675,2685.959,3193.794L2685.959,3193.794z"/>
						
							<linearGradient id="SVGID_00000165934259181135319270000006948400893299188889_" gradientUnits="userSpaceOnUse" x1="712.0408" y1="3138.6519" x2="660.3428" y2="3300.3584" gradientTransform="matrix(-1 0 0 1 1553 0)">
							<stop  offset="0" style="stop-color:#4F52FF"/>
							<stop  offset="1" style="stop-color:#4042E2"/>
						</linearGradient>
						<path style="fill:url(#SVGID_00000165934259181135319270000006948400893299188889_);" d="M688.737,3193.794
							c0,18.119,13.111,35.077,29.285,35.077h281.134c16.173,0,29.285-16.958,29.285-35.077l0,0
							c0-18.119-13.111-35.077-29.285-35.077H718.021C701.848,3158.717,688.737,3175.675,688.737,3193.794L688.737,3193.794z"/>
					</g>
					
						<linearGradient id="SVGID_00000052077960361054028070000011539673361892270267_" gradientUnits="userSpaceOnUse" x1="-186.6637" y1="2680.283" x2="-536.3925" y2="3774.2029" gradientTransform="matrix(-1 0 0 1 1553 0)">
						<stop  offset="0" style="stop-color:#09005D"/>
						<stop  offset="1" style="stop-color:#1A0F91"/>
					</linearGradient>
					<path style="fill:url(#SVGID_00000052077960361054028070000011539673361892270267_);" d="M552.652,2962.596
						c0-25.486,13.96-51.093,36.709-51.093h2535.678c22.749,0,43.394,25.607,43.394,51.093v189.855
						c0,25.486-20.645,43.013-43.394,43.013H589.361c-22.749,0-36.709-17.527-36.709-43.013V2962.596z"/>
				</g>
				<g>
					<path style="fill:#7D97F4;" d="M2353.298,3112c0,18.421-14.933,33.354-33.354,33.354h-918.802
						c-18.421,0-33.354-14.933-33.354-33.354v-117.031c0-18.421,14.933-33.354,33.354-33.354h918.802
						c18.421,0,33.354,14.933,33.354,33.354V3112z"/>
					<g>
						<g>
							<path style="fill:#7D97F4;" d="M2239.41,3019.522c0,15.855,12.852,28.707,28.706,28.707
								c15.855,0,28.707-12.852,28.707-28.707c0-15.854-12.852-28.707-28.707-28.707
								C2252.263,2990.815,2239.41,3003.668,2239.41,3019.522z"/>
							
								<linearGradient id="SVGID_00000145770282490570521930000018151013588981234851_" gradientUnits="userSpaceOnUse" x1="-731.5605" y1="3017.4319" x2="-698.6736" y2="3017.4319" gradientTransform="matrix(-1 0 0 1 1553 0)">
								<stop  offset="0" style="stop-color:#09005D"/>
								<stop  offset="1" style="stop-color:#1A0F91"/>
							</linearGradient>
							<path style="fill:url(#SVGID_00000145770282490570521930000018151013588981234851_);" d="M2251.674,3017.431
								c0,9.082,7.362,16.444,16.443,16.444c9.082,0,16.444-7.362,16.444-16.444c0-9.081-7.362-16.443-16.444-16.443
								C2259.036,3000.988,2251.674,3008.35,2251.674,3017.431z"/>
						</g>
						<g>
							<circle style="fill:#7D97F4;" cx="2182.817" cy="3019.522" r="28.707"/>
							
								<linearGradient id="SVGID_00000060731199475336706370000009267285358081783943_" gradientUnits="userSpaceOnUse" x1="-646.2605" y1="3017.4319" x2="-613.373" y2="3017.4319" gradientTransform="matrix(-1 0 0 1 1553 0)">
								<stop  offset="0" style="stop-color:#09005D"/>
								<stop  offset="1" style="stop-color:#1A0F91"/>
							</linearGradient>
							<path style="fill:url(#SVGID_00000060731199475336706370000009267285358081783943_);" d="M2166.373,3017.431
								c0,9.082,7.362,16.444,16.444,16.444c9.082,0,16.444-7.362,16.444-16.444c0-9.081-7.362-16.443-16.444-16.443
								C2173.735,3000.988,2166.373,3008.35,2166.373,3017.431z"/>
						</g>
						<g>
							<path style="fill:#7D97F4;" d="M2154.11,3098.261c0,15.854,12.852,28.706,28.707,28.706
								c15.854,0,28.707-12.852,28.707-28.706c0-15.855-12.853-28.707-28.707-28.707
								C2166.962,3069.554,2154.11,3082.406,2154.11,3098.261z"/>
							
								<linearGradient id="SVGID_00000103260692092430922300000016270555161470045625_" gradientUnits="userSpaceOnUse" x1="-646.2605" y1="3096.1702" x2="-613.373" y2="3096.1702" gradientTransform="matrix(-1 0 0 1 1553 0)">
								<stop  offset="0" style="stop-color:#09005D"/>
								<stop  offset="1" style="stop-color:#1A0F91"/>
							</linearGradient>
							<path style="fill:url(#SVGID_00000103260692092430922300000016270555161470045625_);" d="M2166.373,3096.17
								c0,9.081,7.362,16.443,16.444,16.443c9.082,0,16.444-7.362,16.444-16.443c0-9.082-7.362-16.444-16.444-16.444
								C2173.735,3079.727,2166.373,3087.089,2166.373,3096.17z"/>
						</g>
						<g>
							<path style="fill:#7D97F4;" d="M2239.41,3098.261c0,15.854,12.852,28.706,28.706,28.706
								c15.855,0,28.707-12.852,28.707-28.706c0-15.855-12.852-28.707-28.707-28.707
								C2252.263,3069.554,2239.41,3082.406,2239.41,3098.261z"/>
							
								<linearGradient id="SVGID_00000078023879703418556920000011539317274553652383_" gradientUnits="userSpaceOnUse" x1="-731.5605" y1="3096.1702" x2="-698.6736" y2="3096.1702" gradientTransform="matrix(-1 0 0 1 1553 0)">
								<stop  offset="0" style="stop-color:#09005D"/>
								<stop  offset="1" style="stop-color:#1A0F91"/>
							</linearGradient>
							<path style="fill:url(#SVGID_00000078023879703418556920000011539317274553652383_);" d="M2251.674,3096.17
								c0,9.081,7.362,16.443,16.443,16.443c9.082,0,16.444-7.362,16.444-16.443c0-9.082-7.362-16.444-16.444-16.444
								C2259.036,3079.727,2251.674,3087.089,2251.674,3096.17z"/>
						</g>
					</g>
					<g>
						<g>
							
								<linearGradient id="SVGID_00000129169780114459224600000009856662240947701133_" gradientUnits="userSpaceOnUse" x1="-8.9298" y1="3019.5217" x2="48.4841" y2="3019.5217" gradientTransform="matrix(-1 0 0 1 1553 0)">
								<stop  offset="0" style="stop-color:#E1473D"/>
								<stop  offset="1" style="stop-color:#E9605A"/>
							</linearGradient>
							
								<circle style="fill:url(#SVGID_00000129169780114459224600000009856662240947701133_);" cx="1533.223" cy="3019.522" r="28.707"/>
							
								<linearGradient id="SVGID_00000085243503758755567590000005323218950677998466_" gradientUnits="userSpaceOnUse" x1="3.3334" y1="3017.4319" x2="36.2208" y2="3017.4319" gradientTransform="matrix(-1 0 0 1 1553 0)">
								<stop  offset="0" style="stop-color:#09005D"/>
								<stop  offset="1" style="stop-color:#1A0F91"/>
							</linearGradient>
							<path style="fill:url(#SVGID_00000085243503758755567590000005323218950677998466_);" d="M1516.779,3017.431
								c0,9.082,7.362,16.444,16.444,16.444s16.444-7.362,16.444-16.444c0-9.081-7.362-16.443-16.444-16.443
								S1516.779,3008.35,1516.779,3017.431z"/>
						</g>
						<g>
							<path style="fill:#7D97F4;" d="M1419.216,3019.522c0,15.855,12.852,28.707,28.707,28.707
								c15.854,0,28.706-12.852,28.706-28.707c0-15.854-12.852-28.707-28.706-28.707
								C1432.068,2990.815,1419.216,3003.668,1419.216,3019.522z"/>
							
								<linearGradient id="SVGID_00000068658568958073354340000008051457533354885823_" gradientUnits="userSpaceOnUse" x1="88.6339" y1="3017.4319" x2="121.5208" y2="3017.4319" gradientTransform="matrix(-1 0 0 1 1553 0)">
								<stop  offset="0" style="stop-color:#09005D"/>
								<stop  offset="1" style="stop-color:#1A0F91"/>
							</linearGradient>
							<path style="fill:url(#SVGID_00000068658568958073354340000008051457533354885823_);" d="M1431.479,3017.431
								c0,9.082,7.362,16.444,16.444,16.444c9.081,0,16.443-7.362,16.443-16.444c0-9.081-7.362-16.443-16.443-16.443
								C1438.841,3000.988,1431.479,3008.35,1431.479,3017.431z"/>
						</g>
						<g>
							<path style="fill:#7D97F4;" d="M1419.216,3098.261c0,15.854,12.852,28.706,28.707,28.706
								c15.854,0,28.706-12.852,28.706-28.706c0-15.855-12.852-28.707-28.706-28.707
								C1432.068,3069.554,1419.216,3082.406,1419.216,3098.261z"/>
							
								<linearGradient id="SVGID_00000041988952033897685790000011784529111579852430_" gradientUnits="userSpaceOnUse" x1="88.6339" y1="3096.1702" x2="121.5208" y2="3096.1702" gradientTransform="matrix(-1 0 0 1 1553 0)">
								<stop  offset="0" style="stop-color:#09005D"/>
								<stop  offset="1" style="stop-color:#1A0F91"/>
							</linearGradient>
							<path style="fill:url(#SVGID_00000041988952033897685790000011784529111579852430_);" d="M1431.479,3096.17
								c0,9.081,7.362,16.443,16.444,16.443c9.081,0,16.443-7.362,16.443-16.443c0-9.082-7.362-16.444-16.443-16.444
								C1438.841,3079.727,1431.479,3087.089,1431.479,3096.17z"/>
						</g>
						<g>
							
								<linearGradient id="SVGID_00000178196395661558298430000009655726327493196695_" gradientUnits="userSpaceOnUse" x1="-8.9298" y1="3098.2605" x2="48.4841" y2="3098.2605" gradientTransform="matrix(-1 0 0 1 1553 0)">
								<stop  offset="0" style="stop-color:#E1473D"/>
								<stop  offset="1" style="stop-color:#E9605A"/>
							</linearGradient>
							<path style="fill:url(#SVGID_00000178196395661558298430000009655726327493196695_);" d="M1504.516,3098.261
								c0,15.854,12.853,28.706,28.707,28.706s28.707-12.852,28.707-28.706c0-15.855-12.853-28.707-28.707-28.707
								S1504.516,3082.406,1504.516,3098.261z"/>
							
								<linearGradient id="SVGID_00000090257110991584200410000012287290883235735200_" gradientUnits="userSpaceOnUse" x1="3.3334" y1="3096.1702" x2="36.2208" y2="3096.1702" gradientTransform="matrix(-1 0 0 1 1553 0)">
								<stop  offset="0" style="stop-color:#09005D"/>
								<stop  offset="1" style="stop-color:#1A0F91"/>
							</linearGradient>
							<path style="fill:url(#SVGID_00000090257110991584200410000012287290883235735200_);" d="M1516.779,3096.17
								c0,9.081,7.362,16.443,16.444,16.443s16.444-7.362,16.444-16.443c0-9.082-7.362-16.444-16.444-16.444
								S1516.779,3087.089,1516.779,3096.17z"/>
						</g>
					</g>
					<g>
						<g>
							<g>
								
									<linearGradient id="SVGID_00000072277048080906722530000003314666150464027791_" gradientUnits="userSpaceOnUse" x1="-501.0465" y1="3019.5217" x2="-443.6326" y2="3019.5217" gradientTransform="matrix(-1 0 0 1 1553 0)">
									<stop  offset="0" style="stop-color:#E1473D"/>
									<stop  offset="1" style="stop-color:#E9605A"/>
								</linearGradient>
								
									<circle style="fill:url(#SVGID_00000072277048080906722530000003314666150464027791_);" cx="2025.339" cy="3019.522" r="28.707"/>
								
									<linearGradient id="SVGID_00000022545889670291525130000010641345153837672377_" gradientUnits="userSpaceOnUse" x1="-488.7827" y1="3017.4319" x2="-455.8958" y2="3017.4319" gradientTransform="matrix(-1 0 0 1 1553 0)">
									<stop  offset="0" style="stop-color:#09005D"/>
									<stop  offset="1" style="stop-color:#1A0F91"/>
								</linearGradient>
								<path style="fill:url(#SVGID_00000022545889670291525130000010641345153837672377_);" d="M2008.896,3017.431
									c0,9.082,7.362,16.444,16.444,16.444c9.081,0,16.443-7.362,16.443-16.444c0-9.081-7.362-16.443-16.443-16.443
									C2016.258,3000.988,2008.896,3008.35,2008.896,3017.431z"/>
							</g>
							<g>
								
									<linearGradient id="SVGID_00000018238266366543742030000012690415175985970314_" gradientUnits="userSpaceOnUse" x1="5759.646" y1="-10349.4932" x2="5358.7798" y2="-9477.6104" gradientTransform="matrix(-1 0 0 1 1553 0)">
									<stop  offset="0" style="stop-color:#FF928E"/>
									<stop  offset="1" style="stop-color:#FE7062"/>
								</linearGradient>
								<path style="fill:url(#SVGID_00000018238266366543742030000012690415175985970314_);" d="M1911.333,3019.522
									c0,15.855,12.852,28.707,28.706,28.707c15.855,0,28.707-12.852,28.707-28.707c0-15.854-12.852-28.707-28.707-28.707
									C1924.185,2990.815,1911.333,3003.668,1911.333,3019.522z"/>
								
									<linearGradient id="SVGID_00000116945661017021498920000010847651181242666405_" gradientUnits="userSpaceOnUse" x1="-403.4827" y1="3017.4319" x2="-370.5958" y2="3017.4319" gradientTransform="matrix(-1 0 0 1 1553 0)">
									<stop  offset="0" style="stop-color:#09005D"/>
									<stop  offset="1" style="stop-color:#1A0F91"/>
								</linearGradient>
								<path style="fill:url(#SVGID_00000116945661017021498920000010847651181242666405_);" d="M1923.596,3017.431
									c0,9.082,7.362,16.444,16.443,16.444c9.082,0,16.444-7.362,16.444-16.444c0-9.081-7.362-16.443-16.444-16.443
									C1930.958,3000.988,1923.596,3008.35,1923.596,3017.431z"/>
							</g>
							<g>
								
									<linearGradient id="SVGID_00000014617798777930329580000008810424130670880940_" gradientUnits="userSpaceOnUse" x1="5789.5391" y1="-10335.7725" x2="5388.6729" y2="-9463.8887" gradientTransform="matrix(-1 0 0 1 1553 0)">
									<stop  offset="0" style="stop-color:#FF928E"/>
									<stop  offset="1" style="stop-color:#FE7062"/>
								</linearGradient>
								<path style="fill:url(#SVGID_00000014617798777930329580000008810424130670880940_);" d="M1911.333,3098.261
									c0,15.854,12.852,28.706,28.706,28.706c15.855,0,28.707-12.852,28.707-28.706c0-15.855-12.852-28.707-28.707-28.707
									C1924.185,3069.554,1911.333,3082.406,1911.333,3098.261z"/>
								
									<linearGradient id="SVGID_00000047059806856508272560000004986999111319989937_" gradientUnits="userSpaceOnUse" x1="-403.4827" y1="3096.1702" x2="-370.5958" y2="3096.1702" gradientTransform="matrix(-1 0 0 1 1553 0)">
									<stop  offset="0" style="stop-color:#09005D"/>
									<stop  offset="1" style="stop-color:#1A0F91"/>
								</linearGradient>
								<path style="fill:url(#SVGID_00000047059806856508272560000004986999111319989937_);" d="M1923.596,3096.17
									c0,9.081,7.362,16.443,16.443,16.443c9.082,0,16.444-7.362,16.444-16.443c0-9.082-7.362-16.444-16.444-16.444
									C1930.958,3079.727,1923.596,3087.089,1923.596,3096.17z"/>
							</g>
							<g>
								
									<linearGradient id="SVGID_00000028287948615285680030000018000600242288597155_" gradientUnits="userSpaceOnUse" x1="-501.0465" y1="3098.2605" x2="-443.6326" y2="3098.2605" gradientTransform="matrix(-1 0 0 1 1553 0)">
									<stop  offset="0" style="stop-color:#E1473D"/>
									<stop  offset="1" style="stop-color:#E9605A"/>
								</linearGradient>
								<path style="fill:url(#SVGID_00000028287948615285680030000018000600242288597155_);" d="M1996.633,3098.261
									c0,15.854,12.852,28.706,28.707,28.706c15.854,0,28.707-12.852,28.707-28.706c0-15.855-12.853-28.707-28.707-28.707
									C2009.485,3069.554,1996.633,3082.406,1996.633,3098.261z"/>
								
									<linearGradient id="SVGID_00000000930313348640039800000016209629489748893606_" gradientUnits="userSpaceOnUse" x1="-488.7827" y1="3096.1702" x2="-455.8958" y2="3096.1702" gradientTransform="matrix(-1 0 0 1 1553 0)">
									<stop  offset="0" style="stop-color:#09005D"/>
									<stop  offset="1" style="stop-color:#1A0F91"/>
								</linearGradient>
								<path style="fill:url(#SVGID_00000000930313348640039800000016209629489748893606_);" d="M2008.896,3096.17
									c0,9.081,7.362,16.443,16.444,16.443c9.081,0,16.443-7.362,16.443-16.443c0-9.082-7.362-16.444-16.443-16.444
									C2016.258,3079.727,2008.896,3087.089,2008.896,3096.17z"/>
							</g>
						</g>
						<g>
							<g>
								<circle style="fill:#7D97F4;" cx="1854.739" cy="3019.522" r="28.707"/>
								
									<linearGradient id="SVGID_00000083767788887783639770000000970000356895955844_" gradientUnits="userSpaceOnUse" x1="-318.1827" y1="3017.4319" x2="-285.2953" y2="3017.4319" gradientTransform="matrix(-1 0 0 1 1553 0)">
									<stop  offset="0" style="stop-color:#09005D"/>
									<stop  offset="1" style="stop-color:#1A0F91"/>
								</linearGradient>
								<path style="fill:url(#SVGID_00000083767788887783639770000000970000356895955844_);" d="M1838.295,3017.431
									c0,9.082,7.362,16.444,16.444,16.444s16.444-7.362,16.444-16.444c0-9.081-7.362-16.443-16.444-16.443
									S1838.295,3008.35,1838.295,3017.431z"/>
							</g>
							<g>
								<path style="fill:#7D97F4;" d="M1740.732,3019.522c0,15.855,12.852,28.707,28.707,28.707
									c15.854,0,28.706-12.852,28.706-28.707c0-15.854-12.852-28.707-28.706-28.707
									C1753.584,2990.815,1740.732,3003.668,1740.732,3019.522z"/>
								
									<linearGradient id="SVGID_00000174591873710499648100000013137190222439517068_" gradientUnits="userSpaceOnUse" x1="-232.8822" y1="3017.4319" x2="-199.9953" y2="3017.4319" gradientTransform="matrix(-1 0 0 1 1553 0)">
									<stop  offset="0" style="stop-color:#09005D"/>
									<stop  offset="1" style="stop-color:#1A0F91"/>
								</linearGradient>
								<path style="fill:url(#SVGID_00000174591873710499648100000013137190222439517068_);" d="M1752.995,3017.431
									c0,9.082,7.362,16.444,16.444,16.444c9.081,0,16.443-7.362,16.443-16.444c0-9.081-7.362-16.443-16.443-16.443
									C1760.357,3000.988,1752.995,3008.35,1752.995,3017.431z"/>
							</g>
							<g>
								<path style="fill:#7D97F4;" d="M1740.732,3098.261c0,15.854,12.852,28.706,28.707,28.706
									c15.854,0,28.706-12.852,28.706-28.706c0-15.855-12.852-28.707-28.706-28.707
									C1753.584,3069.554,1740.732,3082.406,1740.732,3098.261z"/>
								
									<linearGradient id="SVGID_00000026129021971550314630000003285484823773014698_" gradientUnits="userSpaceOnUse" x1="-232.8822" y1="3096.1702" x2="-199.9953" y2="3096.1702" gradientTransform="matrix(-1 0 0 1 1553 0)">
									<stop  offset="0" style="stop-color:#09005D"/>
									<stop  offset="1" style="stop-color:#1A0F91"/>
								</linearGradient>
								<path style="fill:url(#SVGID_00000026129021971550314630000003285484823773014698_);" d="M1752.995,3096.17
									c0,9.081,7.362,16.443,16.444,16.443c9.081,0,16.443-7.362,16.443-16.443c0-9.082-7.362-16.444-16.443-16.444
									C1760.357,3079.727,1752.995,3087.089,1752.995,3096.17z"/>
							</g>
							<g>
								<path style="fill:#7D97F4;" d="M1826.032,3098.261c0,15.854,12.853,28.706,28.707,28.706
									c15.855,0,28.707-12.852,28.707-28.706c0-15.855-12.852-28.707-28.707-28.707
									C1838.885,3069.554,1826.032,3082.406,1826.032,3098.261z"/>
								
									<linearGradient id="SVGID_00000164472560424024954670000006497303558885834404_" gradientUnits="userSpaceOnUse" x1="-318.1827" y1="3096.1702" x2="-285.2953" y2="3096.1702" gradientTransform="matrix(-1 0 0 1 1553 0)">
									<stop  offset="0" style="stop-color:#09005D"/>
									<stop  offset="1" style="stop-color:#1A0F91"/>
								</linearGradient>
								<path style="fill:url(#SVGID_00000164472560424024954670000006497303558885834404_);" d="M1838.295,3096.17
									c0,9.081,7.362,16.443,16.444,16.443s16.444-7.362,16.444-16.443c0-9.082-7.362-16.444-16.444-16.444
									S1838.295,3087.089,1838.295,3096.17z"/>
							</g>
						</g>
					</g>
				</g>
				<g>
					
						<linearGradient id="SVGID_00000168824754096544941950000014891059122862785950_" gradientUnits="userSpaceOnUse" x1="-1228.2455" y1="2936.186" x2="-1339.026" y2="3282.6975" gradientTransform="matrix(-1 0 0 1 1553 0)">
						<stop  offset="0" style="stop-color:#09005D"/>
						<stop  offset="1" style="stop-color:#1A0F91"/>
					</linearGradient>
					<path style="fill:url(#SVGID_00000168824754096544941950000014891059122862785950_);" d="M2568.964,2961.615h495.07
						c16.579,0,34.243,15.7,34.243,34.122v117.014c0,18.421-17.664,35.944-34.243,35.944h-495.07
						c-16.579,0-28.586-17.523-28.586-35.944v-117.014C2540.378,2977.315,2552.385,2961.615,2568.964,2961.615z"/>
					
						<linearGradient id="SVGID_00000069392122686555534770000006186034933094867354_" gradientUnits="userSpaceOnUse" x1="694.9579" y1="2935.6416" x2="584.1994" y2="3282.0845" gradientTransform="matrix(-1 0 0 1 1553 0)">
						<stop  offset="0" style="stop-color:#09005D"/>
						<stop  offset="1" style="stop-color:#1A0F91"/>
					</linearGradient>
					<path style="fill:url(#SVGID_00000069392122686555534770000006186034933094867354_);" d="M643.804,2961.615h495.07
						c16.579,0,35.151,15.7,35.151,34.122v117.014c0,18.421-18.572,35.944-35.151,35.944h-495.07
						c-16.579,0-24.338-17.523-24.338-35.944v-117.014C619.466,2977.315,627.225,2961.615,643.804,2961.615z"/>
				</g>
			</g>
			<g>
				<defs>
					
						<rect id="SVGID_00000147220625723828471120000003575187803944501891_" x="1176.793" y="799.046" width="2061.438" height="2112.458"/>
				</defs>
				<clipPath id="SVGID_00000155139507366692372370000012650439395356819623_">
					<use xlink:href="#SVGID_00000147220625723828471120000003575187803944501891_"  style="overflow:visible;"/>
				</clipPath>
				<g style="clip-path:url(#SVGID_00000155139507366692372370000012650439395356819623_);">
					
						<linearGradient id="SVGID_00000174580044043631510540000002240874806436518562_" gradientUnits="userSpaceOnUse" x1="-958.2166" y1="1382.2543" x2="211.584" y2="2417.9673" gradientTransform="matrix(-1 0 0 1 2069.8206 0)">
						<stop  offset="0" style="stop-color:#09005D"/>
						<stop  offset="1" style="stop-color:#1A0F91"/>
					</linearGradient>
					<path style="fill:url(#SVGID_00000174580044043631510540000002240874806436518562_);" d="M2569.562,1699.409
						c0,0,93.431,0,165.302-107.804c71.871-107.806,165.301-237.172,352.163-136.554c186.862,100.618,215.61,416.847,0,682.766
						c-215.61,265.918-431.22,287.48-646.83,136.553c-215.61-150.927-110.656-250.684-319.079-214.749
						c-208.422,35.934-359.054-159.193-315.931-317.307c43.12-158.114,152.352-312.968,346.401-233.911
						C2345.637,1587.46,2346.765,1677.848,2569.562,1699.409z"/>
					
						<linearGradient id="SVGID_00000087398787895603503600000015110140286894907049_" gradientUnits="userSpaceOnUse" x1="692.8295" y1="1000.952" x2="178.282" y2="2757.8354" gradientTransform="matrix(-1 0 0 1 2069.8206 0)">
						<stop  offset="0" style="stop-color:#FEBBBA"/>
						<stop  offset="1" style="stop-color:#FF928E"/>
					</linearGradient>
					<path style="fill:url(#SVGID_00000087398787895603503600000015110140286894907049_);" d="M1577.299,1195.788
						c0,7.151-58.34,773.406,263.413,916.406l-92.95,171.602c0,0-437.692-263.413-231.544-1072.737L1577.299,1195.788z"/>
					
						<linearGradient id="SVGID_00000086667703104488042120000004700647238795865762_" gradientUnits="userSpaceOnUse" x1="5691.8574" y1="-9824.5098" x2="5290.9922" y2="-8952.6299" gradientTransform="matrix(-1 0 0 1 2069.8206 0)">
						<stop  offset="0" style="stop-color:#FF928E"/>
						<stop  offset="1" style="stop-color:#FE7062"/>
					</linearGradient>
					<path style="fill:url(#SVGID_00000086667703104488042120000004700647238795865762_);" d="M2129.645,2047.649
						c-63.825,10.932-249.895,40.419-329.436,27.317c-8.98-1.479-17.84,3.067-21.687,11.315
						c-19.786,42.423-73.861,170.333-67.608,289.135c7.347,139.579,117.183,204.941,179.891,468.119
						c5.393,22.634,23.41,40.012,46.127,45.042c40.245,8.912,108.361,12.276,188.564-31.522
						c19.761-10.793,31.963-31.648,31.849-54.164c-0.525-103.608-0.946-411.796,11.677-519.095
						c11.151-94.78-3.279-179.12-11.877-217.73C2154.364,2053.578,2142.255,2045.489,2129.645,2047.649z"/>
					
						<linearGradient id="SVGID_00000021818456926055555320000016706500792440487297_" gradientUnits="userSpaceOnUse" x1="57.5769" y1="2462.6152" x2="154.2891" y2="1948.5134" gradientTransform="matrix(-1 0 0 1 2069.8206 0)">
						<stop  offset="0" style="stop-color:#FEBBBA"/>
						<stop  offset="1" style="stop-color:#FF928E"/>
					</linearGradient>
					<path style="fill:url(#SVGID_00000021818456926055555320000016706500792440487297_);" d="M1962.874,1902.038l52.051,156.156
						c6.484,19.453,0.652,41.236-15.409,53.989c-22.556,17.912-60.731,33.853-114.521,8.029
						c-13.038-6.259-21.686-19.114-22.315-33.564l-6.699-154.068L1962.874,1902.038z"/>
					
						<linearGradient id="SVGID_00000147903493563959922640000002329095992348033434_" gradientUnits="userSpaceOnUse" x1="266.2993" y1="1891.9968" x2="-68.9271" y2="1598.1561" gradientTransform="matrix(-1 0 0 1 2069.8206 0)">
						<stop  offset="0" style="stop-color:#FEBBBA"/>
						<stop  offset="1" style="stop-color:#FF928E"/>
					</linearGradient>
					<path style="fill:url(#SVGID_00000147903493563959922640000002329095992348033434_);" d="M1886.221,1635.175
						c0,0-156.316,156.313-84.372,321.029c2.44,5.583,7.266,9.743,13.052,11.651c26.996,8.907,108.134,24.402,189.27-71.949
						c99.326-117.95,37.246-204.861,37.246-204.861L1886.221,1635.175z"/>
					
						<linearGradient id="SVGID_00000154421560407093178860000003876837347317141635_" gradientUnits="userSpaceOnUse" x1="-679.7117" y1="1068.3331" x2="532.4931" y2="2141.5898" gradientTransform="matrix(-1 0 0 1 2069.8206 0)">
						<stop  offset="0" style="stop-color:#09005D"/>
						<stop  offset="1" style="stop-color:#1A0F91"/>
					</linearGradient>
					<path style="fill:url(#SVGID_00000154421560407093178860000003876837347317141635_);" d="M2080.847,1893.458l-50.311-7.188
						c0,0,64.684-150.926-7.186-179.675c-71.869-28.747-165.301,7.188-143.741-86.244c21.562-93.431,215.611-43.122,265.92,28.749
						C2195.838,1720.97,2080.847,1893.458,2080.847,1893.458z"/>
					
						<linearGradient id="SVGID_00000048497493298915861940000001721790668748105096_" gradientUnits="userSpaceOnUse" x1="179.058" y1="1991.5254" x2="-156.1691" y2="1697.684" gradientTransform="matrix(-1 0 0 1 2069.8206 0)">
						<stop  offset="0" style="stop-color:#FEBBBA"/>
						<stop  offset="1" style="stop-color:#FF928E"/>
					</linearGradient>
					<path style="fill:url(#SVGID_00000048497493298915861940000001721790668748105096_);" d="M1991.755,1858.659
						c0,0,49.663-62.079,80.704-18.623c31.039,43.454-55.87,80.701-86.911,62.079L1991.755,1858.659z"/>
					<g>
						
							<linearGradient id="SVGID_00000131359530257703873330000000432413773031700371_" gradientUnits="userSpaceOnUse" x1="-3021.2944" y1="-4563.1387" x2="-2292.4258" y2="-3520.6348" gradientTransform="matrix(0.2348 -0.972 -0.972 -0.2348 -979.5514 -1137.7968)">
							<stop  offset="0" style="stop-color:#FEBBBA"/>
							<stop  offset="1" style="stop-color:#FF928E"/>
						</linearGradient>
						<path style="fill:url(#SVGID_00000131359530257703873330000000432413773031700371_);" d="M2678.313,2841.401
							c0,0-338.912-256.635-407.026-701.407c0,0-20.647-101.278-137.375-92.066c-30.386,2.398-40.161,69.815-32.004,99.182
							c41.574,149.666,150.643,528.022,556.726,717.623L2678.313,2841.401z"/>
						
							<linearGradient id="SVGID_00000145768821537932437200000009180193141649449133_" gradientUnits="userSpaceOnUse" x1="-3657.0383" y1="-712.3719" x2="-2998.2817" y2="229.8503" gradientTransform="matrix(-0.5979 -0.8016 -0.8016 0.5979 -30.285 341.8701)">
							<stop  offset="0" style="stop-color:#FEBBBA"/>
							<stop  offset="1" style="stop-color:#FF928E"/>
						</linearGradient>
						<path style="fill:url(#SVGID_00000145768821537932437200000009180193141649449133_);" d="M2647.779,2860.041l19.203-14.323
							l127.121-54.541c8.862-3.803,19.093-2.457,26.668,3.508l114.409,90.074c0,0-34.824,33.446-93.414-5.039
							c-58.588-38.485-69.41-22.942-83.811-12.2S2696.767,2905.686,2647.779,2860.041z"/>
					</g>
					<path style="opacity:0.69;fill:#FFFFFF;" d="M2692.491,2236.094c-56.753,0.002-113.35-11.979-165.463-35.559l1.377-3.044
						c81.786,37.006,174.742,45.204,261.744,23.086c87.002-22.117,164.756-73.714,218.938-145.285
						c31.234-41.257,53.347-87.143,70.86-126.587c23.307-52.502,51.161-122.365,59.755-197.231
						c6.032-52.543,4.721-129.83-35.769-199.635l2.89-1.677c40.947,70.597,42.288,148.649,36.2,201.694
						c-8.649,75.315-36.621,145.486-60.022,198.203c-17.588,39.62-39.808,85.722-71.251,127.249
						c-54.636,72.173-133.042,124.204-220.778,146.505C2758.676,2232.025,2725.552,2236.092,2692.491,2236.094z"/>
					<path style="opacity:0.69;fill:#FFFFFF;" d="M2467.313,2162.306c-9.549-3.706-18.299-8.993-26.008-15.715l2.199-2.519
						c7.415,6.468,15.833,11.554,25.016,15.118L2467.313,2162.306z"/>
					
						<linearGradient id="SVGID_00000141445205523668077200000004981480477052903321_" gradientUnits="userSpaceOnUse" x1="-1320.2847" y1="2378.7417" x2="-1983.5822" y2="3440.0171" gradientTransform="matrix(1 0 0 1 3909.3279 0)">
						<stop  offset="0" style="stop-color:#E1473D"/>
						<stop  offset="1" style="stop-color:#E9605A"/>
					</linearGradient>
					<path style="fill:url(#SVGID_00000141445205523668077200000004981480477052903321_);" d="M1915.978,3338.027h481.53
						c-22.034-141.043-37.03-271.683-59.865-348.729c-29.963-101.096-180.975-171.237-180.975-171.237
						c-150.676,90.497-265.715,24.795-265.715,24.795s-47.609,116.709-27.045,222.543
						C1871.187,3102.861,1892.054,3212.283,1915.978,3338.027z"/>
					
						<linearGradient id="SVGID_00000036212435801481704230000006581338047859461771_" gradientUnits="userSpaceOnUse" x1="1609.7781" y1="998.1882" x2="1504.3243" y2="1344.6792">
						<stop  offset="0" style="stop-color:#FEBBBA"/>
						<stop  offset="1" style="stop-color:#FF928E"/>
					</linearGradient>
					<path style="fill:url(#SVGID_00000036212435801481704230000006581338047859461771_);" d="M1496.977,1187.72
						c0,0-10.044-120.519,50.216-130.562c60.259-10.044,80.345,50.215,90.388,80.346c10.044,30.131-90.388,90.389-110.474,90.389
						C1507.02,1227.892,1496.977,1187.72,1496.977,1187.72z"/>
				</g>
				
					<linearGradient id="SVGID_00000000906887696784860710000006124760537169850524_" gradientUnits="userSpaceOnUse" x1="2419.0686" y1="379.265" x2="2018.2023" y2="1251.1476">
					<stop  offset="0" style="stop-color:#FF928E"/>
					<stop  offset="1" style="stop-color:#FE7062"/>
				</linearGradient>
				
					<path style="clip-path:url(#SVGID_00000155139507366692372370000012650439395356819623_);fill:url(#SVGID_00000000906887696784860710000006124760537169850524_);" d="
					M1869.072,1645.301c-77.015-25.819-140.489,97.013-74.231,141.495c16.244-54.073,44.051-93.806,77.907-135.906
					C1874.881,1648.239,1872.299,1646.383,1869.072,1645.301z"/>
				
					<linearGradient id="SVGID_00000002365115879425641740000007628916535794154644_" gradientUnits="userSpaceOnUse" x1="2578.3638" y1="452.5042" x2="2177.4968" y2="1324.3883">
					<stop  offset="0" style="stop-color:#FF928E"/>
					<stop  offset="1" style="stop-color:#FE7062"/>
				</linearGradient>
				
					<path style="clip-path:url(#SVGID_00000155139507366692372370000012650439395356819623_);fill:url(#SVGID_00000002365115879425641740000007628916535794154644_);" d="
					M2096.063,1738.912c22.478-176.39-149.055-204.082-223.314-88.022l-8.031-3.012c64.309-137.248,284.239-141.702,279.528,105.635
					L2096.063,1738.912z"/>
				<g style="clip-path:url(#SVGID_00000155139507366692372370000012650439395356819623_);">
					
						<linearGradient id="SVGID_00000080192558207522185030000014641945486713972636_" gradientUnits="userSpaceOnUse" x1="2694.7747" y1="506.0283" x2="2293.9082" y2="1377.911">
						<stop  offset="0" style="stop-color:#FF928E"/>
						<stop  offset="1" style="stop-color:#FE7062"/>
					</linearGradient>
					<path style="fill:url(#SVGID_00000080192558207522185030000014641945486713972636_);" d="M1997.939,1817.99
						c-24.069,37.47-13.205,87.357,24.265,111.425l2.328,1.495c37.469,24.068,87.357,13.205,111.425-24.265l29.865-46.493
						c24.069-37.47,13.204-87.357-24.265-111.425l-2.328-1.495c-37.469-24.068-87.356-13.204-111.425,24.266L1997.939,1817.99z"/>
					
						<linearGradient id="SVGID_00000027565933936579185330000003473363418719452061_" gradientUnits="userSpaceOnUse" x1="2718.9722" y1="517.1534" x2="2318.1055" y2="1389.0366">
						<stop  offset="0" style="stop-color:#FF928E"/>
						<stop  offset="1" style="stop-color:#FE7062"/>
					</linearGradient>
					<path style="fill:url(#SVGID_00000027565933936579185330000003473363418719452061_);" d="M2163.193,1885.245
						c19.095-29.728,10.476-69.307-19.251-88.403l-1.967-1.263c-29.728-19.096-69.307-10.476-88.403,19.251l-15.708,24.453
						c-19.095,29.728-10.476,69.307,19.251,88.402l1.967,1.263c29.728,19.096,69.307,10.476,88.402-19.251L2163.193,1885.245z"/>
				</g>
			</g>
		</g>
		<g>
			<path style="fill:#FFFFFF;" d="M2941.263,2830.356c-0.248,0-0.502-0.055-0.74-0.173c-0.825-0.408-1.165-1.409-0.757-2.236
				c44.134-89.412,2.134-168.083,1.703-168.868c-0.444-0.809-0.147-1.824,0.662-2.268c0.802-0.439,1.824-0.15,2.267,0.662
				c0.437,0.798,43.289,80.934-1.638,171.951C2942.471,2830.015,2941.877,2830.356,2941.263,2830.356z"/>
			<path style="fill:#FFFFFF;" d="M2986.921,2860.625c-0.225,0-0.45-0.044-0.669-0.14c-0.845-0.369-1.23-1.354-0.861-2.199
				c32.715-74.895,23.783-144.98,10.531-190.585c-15.539-53.461-39.88-85.767-45.132-88.224c-0.835-0.392-1.197-1.386-0.806-2.222
				c0.392-0.838,1.4-1.189,2.222-0.806c14.208,6.646,99.288,138.86,36.245,283.175
				C2988.177,2860.251,2987.564,2860.625,2986.921,2860.625z"/>
		</g>
	</g>
</g>
</svg>
